<?xml version="1.0" encoding="UTF-8" standalone="no"?>
<!DOCTYPE svg PUBLIC "-//W3C//DTD SVG 1.1//EN"
 "http://www.w3.org/Graphics/SVG/1.1/DTD/svg11.dtd">
<!-- Generated by graphviz version 2.43.0 (0)
 -->
<!-- Title: vsp_memory_hierarchy Pages: 1 -->
<svg width="2465pt" height="252pt"
 viewBox="0.00 0.00 2464.80 251.80" xmlns="http://www.w3.org/2000/svg" xmlns:xlink="http://www.w3.org/1999/xlink">
<g id="graph0" class="graph" transform="scale(1 1) rotate(0) translate(14.4 237.4)">
<title>vsp_memory_hierarchy</title>
<polygon fill="#ffffff" stroke="transparent" points="-14.4,14.4 -14.4,-237.4 2450.4,-237.4 2450.4,14.4 -14.4,14.4"/>
<text text-anchor="middle" x="1218" y="-204.6" font-family="DejaVu Sans" font-size="18.00">VSP logical I&#45;side / D&#45;side memory boundaries</text>
<!-- program_source -->
<g id="node1" class="node">
<title>program_source</title>
<path fill="#eaf4ff" stroke="#4f6f8f" d="M925.5,-164C925.5,-164 817.5,-164 817.5,-164 811.5,-164 805.5,-158 805.5,-152 805.5,-152 805.5,-131 805.5,-131 805.5,-125 811.5,-119 817.5,-119 817.5,-119 925.5,-119 925.5,-119 931.5,-119 937.5,-125 937.5,-131 937.5,-131 937.5,-152 937.5,-152 937.5,-158 931.5,-164 925.5,-164"/>
<text text-anchor="middle" x="871.5" y="-150" font-family="DejaVu Sans" font-size="10.00">uword program source</text>
<text text-anchor="middle" x="871.5" y="-139" font-family="DejaVu Sans" font-size="10.00">byte PC + word count</text>
<text text-anchor="middle" x="871.5" y="-128" font-family="DejaVu Sans" font-size="10.00">currently 1 outstanding</text>
</g>
<!-- ifetch_model -->
<g id="node2" class="node">
<title>ifetch_model</title>
<path fill="#fff7dc" stroke="#b58b23" d="M1404,-195C1404,-195 1226,-195 1226,-195 1220,-195 1214,-189 1214,-183 1214,-183 1214,-162 1214,-162 1214,-156 1220,-150 1226,-150 1226,-150 1404,-150 1404,-150 1410,-150 1416,-156 1416,-162 1416,-162 1416,-183 1416,-183 1416,-189 1410,-195 1404,-195"/>
<text text-anchor="middle" x="1315" y="-181" font-family="DejaVu Sans" font-size="10.00">ordered I&#45;side fetch model</text>
<text text-anchor="middle" x="1315" y="-170" font-family="DejaVu Sans" font-size="10.00">read&#45;only words + ordered responses</text>
<text text-anchor="middle" x="1315" y="-159" font-family="DejaVu Sans" font-size="10.00">executable protocol reference</text>
</g>
<!-- program_source&#45;&gt;ifetch_model -->
<g id="edge1" class="edge">
<title>program_source&#45;&gt;ifetch_model</title>
<path fill="none" stroke="#b58b23" stroke-dasharray="5,2" d="M944.6,-146.56C1015.83,-151.56 1125.62,-159.27 1207.02,-164.99"/>
<polygon fill="#b58b23" stroke="#b58b23" points="944.59,-144.18 937.64,-146.07 944.26,-148.92 944.59,-144.18"/>
<polygon fill="#b58b23" stroke="#b58b23" points="1206.86,-167.36 1213.81,-165.47 1207.2,-162.61 1206.86,-167.36"/>
<text text-anchor="middle" x="1090.5" y="-165.3" font-family="DejaVu Sans" font-size="9.00" fill="#34495e">candidate provider adapter; not yet bound</text>
</g>
<!-- address_service -->
<g id="node12" class="node">
<title>address_service</title>
<path fill="#f6f6f6" stroke="#999999" stroke-dasharray="5,2" d="M1395,-120C1395,-120 1235,-120 1235,-120 1229,-120 1223,-114 1223,-108 1223,-108 1223,-87 1223,-87 1223,-81 1229,-75 1235,-75 1235,-75 1395,-75 1395,-75 1401,-75 1407,-81 1407,-87 1407,-87 1407,-108 1407,-108 1407,-114 1401,-120 1395,-120"/>
<text text-anchor="middle" x="1315" y="-106" font-family="DejaVu Sans" font-size="10.00">future per&#45;side address services</text>
<text text-anchor="middle" x="1315" y="-95" font-family="DejaVu Sans" font-size="10.00">translation + protection</text>
<text text-anchor="middle" x="1315" y="-84" font-family="DejaVu Sans" font-size="10.00">shared TLB/PTW remains possible</text>
</g>
<!-- program_source&#45;&gt;address_service -->
<g id="edge2" class="edge">
<title>program_source&#45;&gt;address_service</title>
<path fill="none" stroke="#999999" stroke-dasharray="5,2" d="M944.86,-134.29C1018.76,-126.92 1133.99,-115.44 1216.04,-107.26"/>
<polygon fill="#999999" stroke="#999999" points="944.18,-131.96 937.64,-135.01 944.65,-136.7 944.18,-131.96"/>
<polygon fill="#999999" stroke="#999999" points="1216.35,-109.62 1222.88,-106.58 1215.87,-104.89 1216.35,-109.62"/>
<text text-anchor="middle" x="1090.5" y="-130.3" font-family="DejaVu Sans" font-size="9.00" fill="#34495e">I effective address</text>
</g>
<!-- icache -->
<g id="node3" class="node">
<title>icache</title>
<path fill="#f6f6f6" stroke="#999999" stroke-dasharray="5,2" d="M1732,-154C1732,-154 1583,-154 1583,-154 1577,-154 1571,-148 1571,-142 1571,-142 1571,-121 1571,-121 1571,-115 1577,-109 1583,-109 1583,-109 1732,-109 1732,-109 1738,-109 1744,-115 1744,-121 1744,-121 1744,-142 1744,-142 1744,-148 1738,-154 1732,-154"/>
<text text-anchor="middle" x="1657.5" y="-140" font-family="DejaVu Sans" font-size="10.00">future I&#45;cache role</text>
<text text-anchor="middle" x="1657.5" y="-129" font-family="DejaVu Sans" font-size="10.00">cross&#45;line split/fill/reassembly</text>
<text text-anchor="middle" x="1657.5" y="-118" font-family="DejaVu Sans" font-size="10.00">invalidate / instruction visibility</text>
</g>
<!-- lower_i -->
<g id="node9" class="node">
<title>lower_i</title>
<path fill="#f6f6f6" stroke="#999999" stroke-dasharray="5,2" d="M1898,-147.5C1898,-147.5 1829,-147.5 1829,-147.5 1823,-147.5 1817,-141.5 1817,-135.5 1817,-135.5 1817,-123.5 1817,-123.5 1817,-117.5 1823,-111.5 1829,-111.5 1829,-111.5 1898,-111.5 1898,-111.5 1904,-111.5 1910,-117.5 1910,-123.5 1910,-123.5 1910,-135.5 1910,-135.5 1910,-141.5 1904,-147.5 1898,-147.5"/>
<text text-anchor="middle" x="1863.5" y="-127" font-family="DejaVu Sans" font-size="10.00">I miss/fill client</text>
</g>
<!-- icache&#45;&gt;lower_i -->
<g id="edge4" class="edge">
<title>icache&#45;&gt;lower_i</title>
<path fill="none" stroke="#999999" stroke-dasharray="5,2" d="M1751.18,-130.59C1771.32,-130.39 1791.94,-130.19 1809.88,-130.02"/>
<polygon fill="#999999" stroke="#999999" points="1750.9,-128.21 1744.13,-130.66 1750.95,-132.97 1750.9,-128.21"/>
<polygon fill="#999999" stroke="#999999" points="1810.09,-132.39 1816.87,-129.95 1810.05,-127.63 1810.09,-132.39"/>
</g>
<!-- state_engine -->
<g id="node4" class="node">
<title>state_engine</title>
<path fill="#fff7dc" stroke="#b58b23" d="M215.5,-76C215.5,-76 64.5,-76 64.5,-76 58.5,-76 52.5,-70 52.5,-64 52.5,-64 52.5,-43 52.5,-43 52.5,-37 58.5,-31 64.5,-31 64.5,-31 215.5,-31 215.5,-31 221.5,-31 227.5,-37 227.5,-43 227.5,-43 227.5,-64 227.5,-64 227.5,-70 221.5,-76 215.5,-76"/>
<text text-anchor="middle" x="140" y="-62" font-family="DejaVu Sans" font-size="10.00">sequencer state engine</text>
<text text-anchor="middle" x="140" y="-51" font-family="DejaVu Sans" font-size="10.00">per&#45;context 32&#45;bit address state</text>
<text text-anchor="middle" x="140" y="-40" font-family="DejaVu Sans" font-size="10.00">SMOVI / SADD / SADDI</text>
</g>
<!-- memory_decode -->
<g id="node5" class="node">
<title>memory_decode</title>
<path fill="#f6f6f6" stroke="#999999" stroke-dasharray="5,2" d="M625,-71.5C625,-71.5 465,-71.5 465,-71.5 459,-71.5 453,-65.5 453,-59.5 453,-59.5 453,-47.5 453,-47.5 453,-41.5 459,-35.5 465,-35.5 465,-35.5 625,-35.5 625,-35.5 631,-35.5 637,-41.5 637,-47.5 637,-47.5 637,-59.5 637,-59.5 637,-65.5 631,-71.5 625,-71.5"/>
<text text-anchor="middle" x="545" y="-56.5" font-family="DejaVu Sans" font-size="10.00">future MEMORY semantic decoder</text>
<text text-anchor="middle" x="545" y="-45.5" font-family="DejaVu Sans" font-size="10.00">snapshot sbase + signed offset</text>
</g>
<!-- state_engine&#45;&gt;memory_decode -->
<g id="edge5" class="edge">
<title>state_engine&#45;&gt;memory_decode</title>
<path fill="none" stroke="#b58b23" stroke-dasharray="5,2" d="M227.95,-53.5C291.91,-53.5 378.93,-53.5 445.47,-53.5"/>
<polygon fill="#b58b23" stroke="#b58b23" points="445.86,-55.88 452.66,-53.5 445.86,-51.12 445.86,-55.88"/>
<text text-anchor="middle" x="366.5" y="-56.3" font-family="DejaVu Sans" font-size="9.00" fill="#34495e">base query; not yet bound</text>
</g>
<!-- vector_memory -->
<g id="node6" class="node">
<title>vector_memory</title>
<path fill="#eaf4ff" stroke="#4f6f8f" d="M955,-76C955,-76 788,-76 788,-76 782,-76 776,-70 776,-64 776,-64 776,-43 776,-43 776,-37 782,-31 788,-31 788,-31 955,-31 955,-31 961,-31 967,-37 967,-43 967,-43 967,-64 967,-64 967,-70 961,-76 955,-76"/>
<text text-anchor="middle" x="871.5" y="-62" font-family="DejaVu Sans" font-size="10.00">vector memory engine</text>
<text text-anchor="middle" x="871.5" y="-51" font-family="DejaVu Sans" font-size="10.00">span planner + unit&#45;stride AGU</text>
<text text-anchor="middle" x="871.5" y="-40" font-family="DejaVu Sans" font-size="10.00">currently 1 dmem beat outstanding</text>
</g>
<!-- memory_decode&#45;&gt;vector_memory -->
<g id="edge6" class="edge">
<title>memory_decode&#45;&gt;vector_memory</title>
<path fill="none" stroke="#999999" stroke-dasharray="5,2" d="M637.25,-53.5C678.27,-53.5 726.84,-53.5 769,-53.5"/>
<polygon fill="#999999" stroke="#999999" points="769.18,-55.88 775.98,-53.5 769.18,-51.12 769.18,-55.88"/>
<text text-anchor="middle" x="706.5" y="-56.3" font-family="DejaVu Sans" font-size="9.00" fill="#34495e">resolved descriptor</text>
</g>
<!-- dmem_model -->
<g id="node7" class="node">
<title>dmem_model</title>
<path fill="#fff7dc" stroke="#b58b23" d="M1387.5,-45C1387.5,-45 1242.5,-45 1242.5,-45 1236.5,-45 1230.5,-39 1230.5,-33 1230.5,-33 1230.5,-12 1230.5,-12 1230.5,-6 1236.5,0 1242.5,0 1242.5,0 1387.5,0 1387.5,0 1393.5,0 1399.5,-6 1399.5,-12 1399.5,-12 1399.5,-33 1399.5,-33 1399.5,-39 1393.5,-45 1387.5,-45"/>
<text text-anchor="middle" x="1315" y="-31" font-family="DejaVu Sans" font-size="10.00">ordered D&#45;side memory model</text>
<text text-anchor="middle" x="1315" y="-20" font-family="DejaVu Sans" font-size="10.00">LOAD / STORE + strobe + ack</text>
<text text-anchor="middle" x="1315" y="-9" font-family="DejaVu Sans" font-size="10.00">executable protocol reference</text>
</g>
<!-- vector_memory&#45;&gt;dmem_model -->
<g id="edge7" class="edge">
<title>vector_memory&#45;&gt;dmem_model</title>
<path fill="none" stroke="#b58b23" d="M972.87,-29.34C984.89,-26.45 993,-24.5 993,-24.5 993,-24.5 1128.52,-23.66 1223.45,-23.06"/>
<polygon fill="#b58b23" stroke="#b58b23" points="972.31,-27.03 966.26,-30.94 973.43,-31.66 972.31,-27.03"/>
<polygon fill="#b58b23" stroke="#b58b23" points="1223.71,-25.44 1230.5,-23.02 1223.68,-20.68 1223.71,-25.44"/>
<text text-anchor="middle" x="1090.5" y="-27.3" font-family="DejaVu Sans" font-size="9.00" fill="#34495e">current model contract</text>
</g>
<!-- vector_memory&#45;&gt;address_service -->
<g id="edge8" class="edge">
<title>vector_memory&#45;&gt;address_service</title>
<path fill="none" stroke="#999999" stroke-dasharray="5,2" d="M974.39,-63.65C1047.05,-70.9 1144.2,-80.58 1215.98,-87.73"/>
<polygon fill="#999999" stroke="#999999" points="974.22,-61.25 967.21,-62.94 973.74,-65.98 974.22,-61.25"/>
<polygon fill="#999999" stroke="#999999" points="1215.84,-90.11 1222.84,-88.42 1216.31,-85.37 1215.84,-90.11"/>
<text text-anchor="middle" x="1090.5" y="-86.3" font-family="DejaVu Sans" font-size="9.00" fill="#34495e">D effective address</text>
</g>
<!-- dcache -->
<g id="node8" class="node">
<title>dcache</title>
<path fill="#f6f6f6" stroke="#999999" stroke-dasharray="5,2" d="M1726.5,-79C1726.5,-79 1588.5,-79 1588.5,-79 1582.5,-79 1576.5,-73 1576.5,-67 1576.5,-67 1576.5,-46 1576.5,-46 1576.5,-40 1582.5,-34 1588.5,-34 1588.5,-34 1726.5,-34 1726.5,-34 1732.5,-34 1738.5,-40 1738.5,-46 1738.5,-46 1738.5,-67 1738.5,-67 1738.5,-73 1732.5,-79 1726.5,-79"/>
<text text-anchor="middle" x="1657.5" y="-65" font-family="DejaVu Sans" font-size="10.00">future D&#45;cache role</text>
<text text-anchor="middle" x="1657.5" y="-54" font-family="DejaVu Sans" font-size="10.00">line fill/write policy</text>
<text text-anchor="middle" x="1657.5" y="-43" font-family="DejaVu Sans" font-size="10.00">clean / invalidate / ownership</text>
</g>
<!-- lower_d -->
<g id="node10" class="node">
<title>lower_d</title>
<path fill="#f6f6f6" stroke="#999999" stroke-dasharray="5,2" d="M1918,-80.5C1918,-80.5 1809,-80.5 1809,-80.5 1803,-80.5 1797,-74.5 1797,-68.5 1797,-68.5 1797,-56.5 1797,-56.5 1797,-50.5 1803,-44.5 1809,-44.5 1809,-44.5 1918,-44.5 1918,-44.5 1924,-44.5 1930,-50.5 1930,-56.5 1930,-56.5 1930,-68.5 1930,-68.5 1930,-74.5 1924,-80.5 1918,-80.5"/>
<text text-anchor="middle" x="1863.5" y="-60" font-family="DejaVu Sans" font-size="10.00">D miss/writeback client</text>
</g>
<!-- dcache&#45;&gt;lower_d -->
<g id="edge10" class="edge">
<title>dcache&#45;&gt;lower_d</title>
<path fill="none" stroke="#999999" stroke-dasharray="5,2" d="M1745.37,-59.06C1760.19,-59.49 1775.44,-59.94 1789.84,-60.36"/>
<polygon fill="#999999" stroke="#999999" points="1745.41,-56.68 1738.54,-58.85 1745.27,-61.43 1745.41,-56.68"/>
<polygon fill="#999999" stroke="#999999" points="1789.96,-62.75 1796.83,-60.57 1790.1,-57.99 1789.96,-62.75"/>
</g>
<!-- arbiter -->
<g id="node11" class="node">
<title>arbiter</title>
<path fill="#f6f6f6" stroke="#999999" stroke-dasharray="5,2" d="M2182,-112.5C2182,-112.5 1995,-112.5 1995,-112.5 1989,-112.5 1983,-106.5 1983,-100.5 1983,-100.5 1983,-88.5 1983,-88.5 1983,-82.5 1989,-76.5 1995,-76.5 1995,-76.5 2182,-76.5 2182,-76.5 2188,-76.5 2194,-82.5 2194,-88.5 2194,-88.5 2194,-100.5 2194,-100.5 2194,-106.5 2188,-112.5 2182,-112.5"/>
<text text-anchor="middle" x="2088.5" y="-97.5" font-family="DejaVu Sans" font-size="10.00">future bounded&#45;fair lower&#45;port arbiter</text>
<text text-anchor="middle" x="2088.5" y="-86.5" font-family="DejaVu Sans" font-size="10.00">client ownership held through response</text>
</g>
<!-- lower_i&#45;&gt;arbiter -->
<g id="edge11" class="edge">
<title>lower_i&#45;&gt;arbiter</title>
<path fill="none" stroke="#999999" stroke-dasharray="5,2" d="M1917.02,-121.26C1934.8,-118.47 1955.4,-115.23 1976,-112"/>
<polygon fill="#999999" stroke="#999999" points="1916.51,-118.93 1910.17,-122.33 1917.25,-123.63 1916.51,-118.93"/>
<polygon fill="#999999" stroke="#999999" points="1976.63,-114.31 1982.98,-110.9 1975.89,-109.61 1976.63,-114.31"/>
</g>
<!-- lower_d&#45;&gt;arbiter -->
<g id="edge12" class="edge">
<title>lower_d&#45;&gt;arbiter</title>
<path fill="none" stroke="#999999" stroke-dasharray="5,2" d="M1937.28,-72.94C1949.72,-74.73 1962.89,-76.62 1976.06,-78.51"/>
<polygon fill="#999999" stroke="#999999" points="1937.27,-70.54 1930.2,-71.93 1936.59,-75.25 1937.27,-70.54"/>
<polygon fill="#999999" stroke="#999999" points="1975.88,-80.89 1982.95,-79.5 1976.55,-76.18 1975.88,-80.89"/>
</g>
<!-- memory -->
<g id="node13" class="node">
<title>memory</title>
<path fill="#f6f6f6" stroke="#999999" stroke-dasharray="5,2" d="M2424,-112.5C2424,-112.5 2259,-112.5 2259,-112.5 2253,-112.5 2247,-106.5 2247,-100.5 2247,-100.5 2247,-88.5 2247,-88.5 2247,-82.5 2253,-76.5 2259,-76.5 2259,-76.5 2424,-76.5 2424,-76.5 2430,-76.5 2436,-82.5 2436,-88.5 2436,-88.5 2436,-100.5 2436,-100.5 2436,-106.5 2430,-112.5 2424,-112.5"/>
<text text-anchor="middle" x="2341.5" y="-97.5" font-family="DejaVu Sans" font-size="10.00">physical local SRAM / SoC memory</text>
<text text-anchor="middle" x="2341.5" y="-86.5" font-family="DejaVu Sans" font-size="10.00">DMA is another explicit client</text>
</g>
<!-- arbiter&#45;&gt;memory -->
<g id="edge13" class="edge">
<title>arbiter&#45;&gt;memory</title>
<path fill="none" stroke="#999999" stroke-dasharray="5,2" d="M2201.12,-94.5C2214.01,-94.5 2227.09,-94.5 2239.82,-94.5"/>
<polygon fill="#999999" stroke="#999999" points="2200.93,-92.12 2194.13,-94.5 2200.93,-96.88 2200.93,-92.12"/>
<polygon fill="#999999" stroke="#999999" points="2240.05,-96.88 2246.85,-94.5 2240.05,-92.12 2240.05,-96.88"/>
</g>
<!-- address_service&#45;&gt;icache -->
<g id="edge3" class="edge">
<title>address_service&#45;&gt;icache</title>
<path fill="none" stroke="#999999" stroke-dasharray="5,2" d="M1414.17,-107.3C1461.37,-112.02 1517.65,-117.64 1564.08,-122.27"/>
<polygon fill="#999999" stroke="#999999" points="1414.25,-104.92 1407.25,-106.61 1413.78,-109.66 1414.25,-104.92"/>
<polygon fill="#999999" stroke="#999999" points="1563.86,-124.64 1570.86,-122.95 1564.33,-119.9 1563.86,-124.64"/>
<text text-anchor="middle" x="1493.5" y="-122.3" font-family="DejaVu Sans" font-size="9.00" fill="#34495e">I translated/protected</text>
</g>
<!-- address_service&#45;&gt;dcache -->
<g id="edge9" class="edge">
<title>address_service&#45;&gt;dcache</title>
<path fill="none" stroke="#999999" stroke-dasharray="5,2" d="M1414.11,-85.69C1463.15,-79.78 1521.98,-72.7 1569.4,-66.99"/>
<polygon fill="#999999" stroke="#999999" points="1413.71,-83.34 1407.25,-86.51 1414.28,-88.06 1413.71,-83.34"/>
<polygon fill="#999999" stroke="#999999" points="1569.85,-69.33 1576.32,-66.15 1569.28,-64.61 1569.85,-69.33"/>
<text text-anchor="middle" x="1493.5" y="-85.3" font-family="DejaVu Sans" font-size="9.00" fill="#34495e">D translated/protected</text>
</g>
<!-- note -->
<g id="node14" class="node">
<title>note</title>
<polygon fill="#ffffff" stroke="#9aa7b3" points="274,-151 0,-151 0,-106 280,-106 280,-145 274,-151"/>
<polyline fill="none" stroke="#9aa7b3" points="274,-151 274,-145 "/>
<polyline fill="none" stroke="#9aa7b3" points="280,-145 274,-145 "/>
<text text-anchor="middle" x="140" y="-137" font-family="DejaVu Sans" font-size="10.00">Fetch bundle width != I&#45;cache line</text>
<text text-anchor="middle" x="140" y="-126" font-family="DejaVu Sans" font-size="10.00">Dmem beat width != D&#45;cache line</text>
<text text-anchor="middle" x="140" y="-115" font-family="DejaVu Sans" font-size="10.00">I/D logical split != two mandatory physical memories</text>
</g>
</g>
</svg>
