<?xml version="1.0" encoding="UTF-8" standalone="no"?>
<!DOCTYPE svg PUBLIC "-//W3C//DTD SVG 1.1//EN"
 "http://www.w3.org/Graphics/SVG/1.1/DTD/svg11.dtd">
<!-- Generated by graphviz version 2.43.0 (0)
 -->
<!-- Title: vsp_simd_microarchitecture Pages: 1 -->
<svg width="3271pt" height="1338pt"
 viewBox="0.00 0.00 3270.80 1337.80" xmlns="http://www.w3.org/2000/svg" xmlns:xlink="http://www.w3.org/1999/xlink">
<g id="graph0" class="graph" transform="scale(1 1) rotate(0) translate(14.4 1323.4)">
<title>vsp_simd_microarchitecture</title>
<polygon fill="#ffffff" stroke="transparent" points="-14.4,14.4 -14.4,-1323.4 3256.4,-1323.4 3256.4,14.4 -14.4,14.4"/>
<text text-anchor="middle" x="1621" y="-1290.6" font-family="DejaVu Sans" font-size="18.00">Current VSP SIMD execution subsystem (behavioral microarchitecture)</text>
<g id="clust1" class="cluster">
<title>cluster_control</title>
<path fill="#ffffff" stroke="#9aa7b3" stroke-dasharray="5,2" d="M20,-1031C20,-1031 1252,-1031 1252,-1031 1258,-1031 1264,-1037 1264,-1043 1264,-1043 1264,-1177 1264,-1177 1264,-1183 1258,-1189 1252,-1189 1252,-1189 20,-1189 20,-1189 14,-1189 8,-1183 8,-1177 8,-1177 8,-1043 8,-1043 8,-1037 14,-1031 20,-1031"/>
<text text-anchor="middle" x="636" y="-1170.6" font-family="DejaVu Sans" font-size="18.00">External control plane (current owner: sequencer/test driver)</text>
</g>
<g id="clust2" class="cluster">
<title>cluster_state</title>
<path fill="#ffffff" stroke="#7da1bc" d="M388,-8C388,-8 900,-8 900,-8 906,-8 912,-14 912,-20 912,-20 912,-244 912,-244 912,-250 906,-256 900,-256 900,-256 388,-256 388,-256 382,-256 376,-250 376,-244 376,-244 376,-20 376,-20 376,-14 382,-8 388,-8"/>
<text text-anchor="middle" x="644" y="-237.6" font-family="DejaVu Sans" font-size="18.00">Architectural SIMD state (parameterized; defaults shown)</text>
</g>
<g id="clust3" class="cluster">
<title>cluster_operand</title>
<path fill="#ffffff" stroke="#77a882" d="M1053.5,-447C1053.5,-447 1819,-447 1819,-447 1825,-447 1831,-453 1831,-459 1831,-459 1831,-671 1831,-671 1831,-677 1825,-683 1819,-683 1819,-683 1053.5,-683 1053.5,-683 1047.5,-683 1041.5,-677 1041.5,-671 1041.5,-671 1041.5,-459 1041.5,-459 1041.5,-453 1047.5,-447 1053.5,-447"/>
<text text-anchor="middle" x="1436.25" y="-664.6" font-family="DejaVu Sans" font-size="18.00">Operand preparation</text>
</g>
<g id="clust4" class="cluster">
<title>cluster_execute</title>
<path fill="#ffffff" stroke="#c18c57" d="M1888,-661C1888,-661 2588,-661 2588,-661 2594,-661 2600,-667 2600,-673 2600,-673 2600,-959 2600,-959 2600,-965 2594,-971 2588,-971 2588,-971 1888,-971 1888,-971 1882,-971 1876,-965 1876,-959 1876,-959 1876,-673 1876,-673 1876,-667 1882,-661 1888,-661"/>
<text text-anchor="middle" x="2238" y="-952.6" font-family="DejaVu Sans" font-size="18.00">Combinational SIMD execution</text>
</g>
<g id="clust5" class="cluster">
<title>cluster_commit</title>
<path fill="#ffffff" stroke="#a37dad" d="M2706,-786C2706,-786 3222,-786 3222,-786 3228,-786 3234,-792 3234,-798 3234,-798 3234,-1064 3234,-1064 3234,-1070 3228,-1076 3222,-1076 3222,-1076 2706,-1076 2706,-1076 2700,-1076 2694,-1070 2694,-1064 2694,-1064 2694,-798 2694,-798 2694,-792 2700,-786 2706,-786"/>
<text text-anchor="middle" x="2964" y="-1057.6" font-family="DejaVu Sans" font-size="18.00">Clock&#45;edge state commit</text>
</g>
<!-- sequencer -->
<g id="node1" class="node">
<title>sequencer</title>
<path fill="#fff4d6" stroke="#bd8b13" d="M309,-1153C309,-1153 28,-1153 28,-1153 22,-1153 16,-1147 16,-1141 16,-1141 16,-1129 16,-1129 16,-1123 22,-1117 28,-1117 28,-1117 309,-1117 309,-1117 315,-1117 321,-1123 321,-1129 321,-1129 321,-1141 321,-1141 321,-1147 315,-1153 309,-1153"/>
<text text-anchor="middle" x="168.5" y="-1138.2" font-family="DejaVu Sans" font-size="11.00">External sequencer / decoded test driver</text>
<text text-anchor="middle" x="168.5" y="-1126.2" font-family="DejaVu Sans" font-size="11.00">(issue queue outside leaf; no compact decoder RTL)</text>
</g>
<!-- issue_bundle -->
<g id="node2" class="node">
<title>issue_bundle</title>
<path fill="#fffaf0" stroke="#51606f" d="M774,-1087C774,-1087 513,-1087 513,-1087 507,-1087 501,-1081 501,-1075 501,-1075 501,-1051 501,-1051 501,-1045 507,-1039 513,-1039 513,-1039 774,-1039 774,-1039 780,-1039 786,-1045 786,-1051 786,-1051 786,-1075 786,-1075 786,-1081 780,-1087 774,-1087"/>
<text text-anchor="middle" x="643.5" y="-1072.2" font-family="DejaVu Sans" font-size="11.00">Issued control bundle</text>
<text text-anchor="middle" x="643.5" y="-1060.2" font-family="DejaVu Sans" font-size="11.00">6&#45;bit function + element mode + RF addresses</text>
<text text-anchor="middle" x="643.5" y="-1048.2" font-family="DejaVu Sans" font-size="11.00">mask/writeback + route/reduce + use_imm/imm</text>
</g>
<!-- sequencer&#45;&gt;issue_bundle -->
<g id="edge1" class="edge">
<title>sequencer&#45;&gt;issue_bundle</title>
<path fill="none" stroke="#8a6d1d" stroke-dasharray="5,2" d="M287.94,-1116.97C350.25,-1107.49 427.27,-1095.76 493.58,-1085.67"/>
<polygon fill="#8a6d1d" stroke="#8a6d1d" points="494.24,-1088.05 500.79,-1084.57 493.5,-1083.2 494.24,-1088.05"/>
</g>
<!-- uop_legal -->
<g id="node3" class="node">
<title>uop_legal</title>
<path fill="#fff4d6" stroke="#bd8b13" d="M1244,-1153C1244,-1153 1028,-1153 1028,-1153 1022,-1153 1016,-1147 1016,-1141 1016,-1141 1016,-1129 1016,-1129 1016,-1123 1022,-1117 1028,-1117 1028,-1117 1244,-1117 1244,-1117 1250,-1117 1256,-1123 1256,-1129 1256,-1129 1256,-1141 1256,-1141 1256,-1147 1250,-1153 1244,-1153"/>
<text text-anchor="middle" x="1136" y="-1138.2" font-family="DejaVu Sans" font-size="11.00">Shared uop legality</text>
<text text-anchor="middle" x="1136" y="-1126.2" font-family="DejaVu Sans" font-size="11.00">op x mode x writeback x route x reduce</text>
</g>
<!-- issue_bundle&#45;&gt;uop_legal -->
<g id="edge2" class="edge">
<title>issue_bundle&#45;&gt;uop_legal</title>
<path fill="none" stroke="#8a6d1d" stroke-dasharray="5,2" d="M786.04,-1083.78C856.35,-1094.1 940.6,-1106.46 1008.7,-1116.46"/>
<polygon fill="#8a6d1d" stroke="#8a6d1d" points="1008.38,-1118.89 1015.66,-1117.48 1009.09,-1114.04 1008.38,-1118.89"/>
</g>
<!-- route_a -->
<g id="node8" class="node">
<title>route_a</title>
<path fill="#edf9ef" stroke="#51606f" d="M1693.5,-629C1693.5,-629 1518.5,-629 1518.5,-629 1512.5,-629 1506.5,-623 1506.5,-617 1506.5,-617 1506.5,-593 1506.5,-593 1506.5,-587 1512.5,-581 1518.5,-581 1518.5,-581 1693.5,-581 1693.5,-581 1699.5,-581 1705.5,-587 1705.5,-593 1705.5,-593 1705.5,-617 1705.5,-617 1705.5,-623 1699.5,-629 1693.5,-629"/>
<text text-anchor="middle" x="1606" y="-614.2" font-family="DejaVu Sans" font-size="11.00">Optional source&#45;A route</text>
<text text-anchor="middle" x="1606" y="-602.2" font-family="DejaVu Sans" font-size="11.00">gather / broadcast / permutation</text>
<text text-anchor="middle" x="1606" y="-590.2" font-family="DejaVu Sans" font-size="11.00">slide up/down</text>
</g>
<!-- issue_bundle&#45;&gt;route_a -->
<g id="edge3" class="edge">
<title>issue_bundle&#45;&gt;route_a</title>
<path fill="none" stroke="#7a7a7a" stroke-dasharray="5,2" d="M658.61,-1038.96C726.47,-923.33 1016,-430 1016,-430 1016,-430 1264,-430 1264,-430 1264,-430 1362,-521 1362,-521 1362,-521 1389,-566 1389,-566 1389,-566 1444.65,-576.05 1499.46,-585.94"/>
<polygon fill="#7a7a7a" stroke="#7a7a7a" points="1499.16,-588.38 1506.48,-587.21 1500.03,-583.56 1499.16,-588.38"/>
<text text-anchor="middle" x="1136" y="-432.8" font-family="DejaVu Sans" font-size="9.00" fill="#34495e">route control</text>
</g>
<!-- imm_broadcast -->
<g id="node10" class="node">
<title>imm_broadcast</title>
<path fill="#edf9ef" stroke="#51606f" d="M1210.5,-581C1210.5,-581 1061.5,-581 1061.5,-581 1055.5,-581 1049.5,-575 1049.5,-569 1049.5,-569 1049.5,-533 1049.5,-533 1049.5,-527 1055.5,-521 1061.5,-521 1061.5,-521 1210.5,-521 1210.5,-521 1216.5,-521 1222.5,-527 1222.5,-533 1222.5,-533 1222.5,-569 1222.5,-569 1222.5,-575 1216.5,-581 1210.5,-581"/>
<text text-anchor="middle" x="1136" y="-566.2" font-family="DejaVu Sans" font-size="11.00">Scalar immediate broadcast</text>
<text text-anchor="middle" x="1136" y="-554.2" font-family="DejaVu Sans" font-size="11.00">normal ops: replace B</text>
<text text-anchor="middle" x="1136" y="-542.2" font-family="DejaVu Sans" font-size="11.00">WADD/WSUB: shared align</text>
<text text-anchor="middle" x="1136" y="-530.2" font-family="DejaVu Sans" font-size="11.00">(no vector immediate)</text>
</g>
<!-- issue_bundle&#45;&gt;imm_broadcast -->
<g id="edge12" class="edge">
<title>issue_bundle&#45;&gt;imm_broadcast</title>
<path fill="none" stroke="#7a7a7a" stroke-dasharray="5,2" d="M663.69,-1038.88C739.76,-943.25 1016,-596 1016,-596 1016,-596 1030.12,-590.66 1048.63,-583.66"/>
<polygon fill="#7a7a7a" stroke="#7a7a7a" points="1049.94,-585.78 1055.63,-581.02 1048.21,-581.2 1049.94,-585.78"/>
<text text-anchor="middle" x="964" y="-687.8" font-family="DejaVu Sans" font-size="9.00" fill="#34495e">scalar imm</text>
</g>
<!-- b_mux -->
<g id="node11" class="node">
<title>b_mux</title>
<path fill="#edf9ef" stroke="#51606f" d="M1594.28,-548.41C1594.28,-548.41 1400.72,-505.59 1400.72,-505.59 1394.86,-504.3 1394.86,-501.7 1400.72,-500.41 1400.72,-500.41 1594.28,-457.59 1594.28,-457.59 1600.14,-456.3 1611.86,-456.3 1617.72,-457.59 1617.72,-457.59 1811.28,-500.41 1811.28,-500.41 1817.14,-501.7 1817.14,-504.3 1811.28,-505.59 1811.28,-505.59 1617.72,-548.41 1617.72,-548.41 1611.86,-549.7 1600.14,-549.7 1594.28,-548.41"/>
<text text-anchor="middle" x="1606" y="-512.2" font-family="DejaVu Sans" font-size="11.00">B source</text>
<text text-anchor="middle" x="1606" y="-500.2" font-family="DejaVu Sans" font-size="11.00">normal ops: use_imm ? imm : VRF&#45;B</text>
<text text-anchor="middle" x="1606" y="-488.2" font-family="DejaVu Sans" font-size="11.00">WADD/WSUB: always VRF&#45;B</text>
</g>
<!-- issue_bundle&#45;&gt;b_mux -->
<g id="edge4" class="edge">
<title>issue_bundle&#45;&gt;b_mux</title>
<path fill="none" stroke="#7a7a7a" stroke-dasharray="5,2" d="M655.82,-1038.99C718.08,-906.92 1016,-275 1016,-275 1016,-275 1264,-275 1264,-275 1264,-275 1447.07,-397.4 1544.93,-462.84"/>
<polygon fill="#7a7a7a" stroke="#7a7a7a" points="1543.79,-465.02 1550.97,-466.87 1546.51,-460.95 1543.79,-465.02"/>
<text text-anchor="middle" x="1136" y="-277.8" font-family="DejaVu Sans" font-size="9.00" fill="#34495e">use_imm</text>
</g>
<!-- exec_mask -->
<g id="node12" class="node">
<title>exec_mask</title>
<path fill="#edf9ef" stroke="#51606f" d="M1193.5,-647C1193.5,-647 1078.5,-647 1078.5,-647 1072.5,-647 1066.5,-641 1066.5,-635 1066.5,-635 1066.5,-623 1066.5,-623 1066.5,-617 1072.5,-611 1078.5,-611 1078.5,-611 1193.5,-611 1193.5,-611 1199.5,-611 1205.5,-617 1205.5,-623 1205.5,-623 1205.5,-635 1205.5,-635 1205.5,-641 1199.5,-647 1193.5,-647"/>
<text text-anchor="middle" x="1136" y="-632.2" font-family="DejaVu Sans" font-size="11.00">Execution mask</text>
<text text-anchor="middle" x="1136" y="-620.2" font-family="DejaVu Sans" font-size="11.00">MRF mask or all lanes</text>
</g>
<!-- issue_bundle&#45;&gt;exec_mask -->
<g id="edge8" class="edge">
<title>issue_bundle&#45;&gt;exec_mask</title>
<path fill="none" stroke="#7a7a7a" stroke-dasharray="5,2" d="M671.92,-1038.74C758.49,-962.14 1025.19,-726.16 1109.31,-651.73"/>
<polygon fill="#7a7a7a" stroke="#7a7a7a" points="1110.96,-653.54 1114.58,-647.07 1107.71,-649.87 1110.96,-653.54"/>
</g>
<!-- lanes -->
<g id="node13" class="node">
<title>lanes</title>
<path fill="#fff2e5" stroke="#ad6c2f" d="M2119,-778.5C2119,-778.5 1898,-778.5 1898,-778.5 1892,-778.5 1886,-772.5 1886,-766.5 1886,-766.5 1886,-681.5 1886,-681.5 1886,-675.5 1892,-669.5 1898,-669.5 1898,-669.5 2119,-669.5 2119,-669.5 2125,-669.5 2131,-675.5 2131,-681.5 2131,-681.5 2131,-766.5 2131,-766.5 2131,-772.5 2125,-778.5 2119,-778.5"/>
<text text-anchor="middle" x="2008.5" y="-763.7" font-family="DejaVu Sans" font-size="11.00">Byte lanes + dynamic element path</text>
<text text-anchor="middle" x="2008.5" y="-738.7" font-family="DejaVu Sans" font-size="11.00">BYTE/HALF/WORD partitioned ADD/SUB</text>
<text text-anchor="middle" x="2008.5" y="-726.7" font-family="DejaVu Sans" font-size="11.00">shared 5&#45;stage partitioned shifter</text>
<text text-anchor="middle" x="2008.5" y="-714.7" font-family="DejaVu Sans" font-size="11.00">partitioned MIN/MAX + comparison chain</text>
<text text-anchor="middle" x="2008.5" y="-702.7" font-family="DejaVu Sans" font-size="11.00">byte logic / 8x8 MUL/MAC</text>
<text text-anchor="middle" x="2008.5" y="-690.7" font-family="DejaVu Sans" font-size="11.00">WIDEN and WADD/WSUB</text>
<text text-anchor="middle" x="2008.5" y="-678.7" font-family="DejaVu Sans" font-size="11.00">ARF scale / NCLIP / NSLICE</text>
</g>
<!-- issue_bundle&#45;&gt;lanes -->
<g id="edge5" class="edge">
<title>issue_bundle&#45;&gt;lanes</title>
<path fill="none" stroke="#7a7a7a" stroke-dasharray="5,2" d="M741.62,-1038.95C851.69,-1011.69 1016,-971 1016,-971 1016,-971 1389,-905 1389,-905 1389,-905 1831,-865 1831,-865 1831,-865 1876,-794 1876,-794 1876,-794 1885.06,-789.18 1898.43,-782.06"/>
<polygon fill="#7a7a7a" stroke="#7a7a7a" points="1899.83,-784.09 1904.86,-778.64 1897.53,-779.76 1899.83,-784.09"/>
<text text-anchor="middle" x="1322.5" y="-925.8" font-family="DejaVu Sans" font-size="9.00" fill="#34495e">op</text>
</g>
<!-- compact -->
<g id="node14" class="node">
<title>compact</title>
<path fill="#fff2e5" stroke="#ad6c2f" d="M2084,-935C2084,-935 1933,-935 1933,-935 1927,-935 1921,-929 1921,-923 1921,-923 1921,-899 1921,-899 1921,-893 1927,-887 1933,-887 1933,-887 2084,-887 2084,-887 2090,-887 2096,-893 2096,-899 2096,-899 2096,-923 2096,-923 2096,-929 2090,-935 2084,-935"/>
<text text-anchor="middle" x="2008.5" y="-920.2" font-family="DejaVu Sans" font-size="11.00">MRF&#45;driven stable rearrange</text>
<text text-anchor="middle" x="2008.5" y="-908.2" font-family="DejaVu Sans" font-size="11.00">COMPRESS / EXPAND</text>
<text text-anchor="middle" x="2008.5" y="-896.2" font-family="DejaVu Sans" font-size="11.00">zero fill + population count</text>
</g>
<!-- issue_bundle&#45;&gt;compact -->
<g id="edge6" class="edge">
<title>issue_bundle&#45;&gt;compact</title>
<path fill="none" stroke="#7a7a7a" stroke-dasharray="5,2" d="M786.15,-1051.9C1100.92,-1027.22 1831,-970 1831,-970 1831,-970 1881.56,-953.1 1928.55,-937.39"/>
<polygon fill="#7a7a7a" stroke="#7a7a7a" points="1929.59,-939.63 1935.46,-935.08 1928.04,-934.98 1929.59,-939.63"/>
<text text-anchor="middle" x="1322.5" y="-1014.8" font-family="DejaVu Sans" font-size="9.00" fill="#34495e">op</text>
</g>
<!-- mask_alu -->
<g id="node15" class="node">
<title>mask_alu</title>
<path fill="#fff2e5" stroke="#ad6c2f" d="M2121,-857C2121,-857 1896,-857 1896,-857 1890,-857 1884,-851 1884,-845 1884,-845 1884,-821 1884,-821 1884,-815 1890,-809 1896,-809 1896,-809 2121,-809 2121,-809 2127,-809 2133,-815 2133,-821 2133,-821 2133,-845 2133,-845 2133,-851 2127,-857 2121,-857"/>
<text text-anchor="middle" x="2008.5" y="-842.2" font-family="DejaVu Sans" font-size="11.00">MRF boolean ALU</text>
<text text-anchor="middle" x="2008.5" y="-830.2" font-family="DejaVu Sans" font-size="11.00">MAND / MOR / MXOR / MNOT</text>
<text text-anchor="middle" x="2008.5" y="-818.2" font-family="DejaVu Sans" font-size="11.00">optional all&#45;ones/zero VRF materialization</text>
</g>
<!-- issue_bundle&#45;&gt;mask_alu -->
<g id="edge7" class="edge">
<title>issue_bundle&#45;&gt;mask_alu</title>
<path fill="none" stroke="#7a7a7a" stroke-dasharray="5,2" d="M786.01,-1042.05C890.99,-1026.51 1016,-1008 1016,-1008 1016,-1008 1831,-908 1831,-908 1831,-908 1857,-902 1857,-902 1857,-902 1876,-872 1876,-872 1876,-872 1895.55,-866.2 1919.58,-859.07"/>
<polygon fill="#7a7a7a" stroke="#7a7a7a" points="1920.45,-861.37 1926.47,-857.03 1919.06,-856.67 1920.45,-861.37"/>
<text text-anchor="middle" x="1322.5" y="-977.8" font-family="DejaVu Sans" font-size="9.00" fill="#34495e">op</text>
</g>
<!-- reduce -->
<g id="node19" class="node">
<title>reduce</title>
<path fill="#fff2e5" stroke="#51606f" d="M2580,-935C2580,-935 2438,-935 2438,-935 2432,-935 2426,-929 2426,-923 2426,-923 2426,-899 2426,-899 2426,-893 2432,-887 2438,-887 2438,-887 2580,-887 2580,-887 2586,-887 2592,-893 2592,-899 2592,-899 2592,-923 2592,-923 2592,-929 2586,-935 2580,-935"/>
<text text-anchor="middle" x="2509" y="-920.2" font-family="DejaVu Sans" font-size="11.00">Mask&#45;aware reduction tree</text>
<text text-anchor="middle" x="2509" y="-908.2" font-family="DejaVu Sans" font-size="11.00">sum / min / max + index</text>
<text text-anchor="middle" x="2509" y="-896.2" font-family="DejaVu Sans" font-size="11.00">(narrow input only)</text>
</g>
<!-- issue_bundle&#45;&gt;reduce -->
<g id="edge9" class="edge">
<title>issue_bundle&#45;&gt;reduce</title>
<path fill="none" stroke="#7a7a7a" stroke-dasharray="5,2" d="M786.04,-1065.31C930.93,-1067.67 1135,-1071 1135,-1071 1135,-1071 1135,-1071 2312,-1071 2312,-1071 2416.13,-986 2472.59,-939.91"/>
<polygon fill="#7a7a7a" stroke="#7a7a7a" points="2474.36,-941.63 2478.23,-935.3 2471.26,-937.83 2474.36,-941.63"/>
</g>
<!-- side_effect_gate -->
<g id="node24" class="node">
<title>side_effect_gate</title>
<path fill="#fff4d6" stroke="#bd8b13" d="M2907,-1006C2907,-1006 2714,-1006 2714,-1006 2708,-1006 2702,-1000 2702,-994 2702,-994 2702,-982 2702,-982 2702,-976 2708,-970 2714,-970 2714,-970 2907,-970 2907,-970 2913,-970 2919,-976 2919,-982 2919,-982 2919,-994 2919,-994 2919,-1000 2913,-1006 2907,-1006"/>
<text text-anchor="middle" x="2810.5" y="-991.2" font-family="DejaVu Sans" font-size="11.00">Unified !uop_illegal gate</text>
<text text-anchor="middle" x="2810.5" y="-979.2" font-family="DejaVu Sans" font-size="11.00">invalid transaction commits nothing</text>
</g>
<!-- uop_legal&#45;&gt;side_effect_gate -->
<g id="edge38" class="edge">
<title>uop_legal&#45;&gt;side_effect_gate</title>
<path fill="none" stroke="#8a6d1d" stroke-dasharray="5,2" d="M1256,-1134.75C1394.66,-1134.45 1605,-1134 1605,-1134 1605,-1134 1605,-1134 2510,-1134 2510,-1134 2683.2,-1049.57 2766.18,-1009.12"/>
<polygon fill="#8a6d1d" stroke="#8a6d1d" points="2767.26,-1011.32 2772.48,-1006.05 2765.11,-1006.91 2767.26,-1011.32"/>
<text text-anchor="middle" x="2192" y="-1136.8" font-family="DejaVu Sans" font-size="9.00" fill="#34495e">contract legal</text>
</g>
<!-- state_transfer -->
<g id="node4" class="node">
<title>state_transfer</title>
<path fill="#f4f0ff" stroke="#7357a5" d="M252,-1087C252,-1087 85,-1087 85,-1087 79,-1087 73,-1081 73,-1075 73,-1075 73,-1051 73,-1051 73,-1045 79,-1039 85,-1039 85,-1039 252,-1039 252,-1039 258,-1039 264,-1045 264,-1051 264,-1051 264,-1075 264,-1075 264,-1081 258,-1087 252,-1087"/>
<text text-anchor="middle" x="168.5" y="-1072.2" font-family="DejaVu Sans" font-size="11.00">cfg_* state&#45;transfer ports</text>
<text text-anchor="middle" x="168.5" y="-1060.2" font-family="DejaVu Sans" font-size="11.00">priority over execute writeback</text>
<text text-anchor="middle" x="168.5" y="-1048.2" font-family="DejaVu Sans" font-size="11.00">(future DMA / LSU attachment)</text>
</g>
<!-- vrf -->
<g id="node5" class="node">
<title>vrf</title>
<path fill="#eaf5ff" stroke="#51606f" d="M707,-220C707,-220 580,-220 580,-220 574,-220 568,-214 568,-208 568,-208 568,-184 568,-184 568,-178 574,-172 580,-172 580,-172 707,-172 707,-172 713,-172 719,-178 719,-184 719,-184 719,-208 719,-208 719,-214 713,-220 707,-220"/>
<text text-anchor="middle" x="643.5" y="-205.2" font-family="DejaVu Sans" font-size="11.00">VRF</text>
<text text-anchor="middle" x="643.5" y="-193.2" font-family="DejaVu Sans" font-size="11.00">16 rows x LANES x 8 bit</text>
<text text-anchor="middle" x="643.5" y="-181.2" font-family="DejaVu Sans" font-size="11.00">2 read / 1 masked write</text>
</g>
<!-- vrf&#45;&gt;route_a -->
<g id="edge10" class="edge">
<title>vrf&#45;&gt;route_a</title>
<path fill="none" stroke="#2f6f9f" d="M719.25,-215.09C820.57,-240.98 989,-284 989,-284 989,-284 1016,-292 1016,-292 1016,-292 1362,-392 1362,-392 1362,-392 1389,-566 1389,-566 1389,-566 1444.65,-576.05 1499.46,-585.94"/>
<polygon fill="#2f6f9f" stroke="#2f6f9f" points="1499.16,-588.38 1506.48,-587.21 1500.03,-583.56 1499.16,-588.38"/>
<text text-anchor="middle" x="1136" y="-365.8" font-family="DejaVu Sans" font-size="9.00" fill="#34495e">source A</text>
</g>
<!-- vrf&#45;&gt;b_mux -->
<g id="edge11" class="edge">
<title>vrf&#45;&gt;b_mux</title>
<path fill="none" stroke="#2f6f9f" d="M719.23,-198.65C883.99,-204.51 1264,-218 1264,-218 1264,-218 1362,-252 1362,-252 1362,-252 1389,-310 1389,-310 1389,-310 1493.14,-403.05 1556.8,-459.93"/>
<polygon fill="#2f6f9f" stroke="#2f6f9f" points="1555.21,-461.8 1562.07,-464.64 1558.48,-458.15 1555.21,-461.8"/>
<text text-anchor="middle" x="1136" y="-230.8" font-family="DejaVu Sans" font-size="9.00" fill="#34495e">source B</text>
<text text-anchor="middle" x="1136" y="-220.8" font-family="DejaVu Sans" font-size="9.00" fill="#34495e">per&#45;lane values</text>
</g>
<!-- arf -->
<g id="node6" class="node">
<title>arf</title>
<path fill="#eaf5ff" stroke="#51606f" d="M707,-64C707,-64 580,-64 580,-64 574,-64 568,-58 568,-52 568,-52 568,-28 568,-28 568,-22 574,-16 580,-16 580,-16 707,-16 707,-16 713,-16 719,-22 719,-28 719,-28 719,-52 719,-52 719,-58 713,-64 707,-64"/>
<text text-anchor="middle" x="643.5" y="-49.2" font-family="DejaVu Sans" font-size="11.00">ARF</text>
<text text-anchor="middle" x="643.5" y="-37.2" font-family="DejaVu Sans" font-size="11.00">8 rows x LANES x 32 bit</text>
<text text-anchor="middle" x="643.5" y="-25.2" font-family="DejaVu Sans" font-size="11.00">1 read / 1 masked write</text>
</g>
<!-- arf&#45;&gt;lanes -->
<g id="edge19" class="edge">
<title>arf&#45;&gt;lanes</title>
<path fill="none" stroke="#2f6f9f" d="M719.17,-43.65C979.46,-56.37 1831,-98 1831,-98 1831,-98 1945.63,-504.56 1990.13,-662.4"/>
<polygon fill="#2f6f9f" stroke="#2f6f9f" points="1987.81,-663.2 1992.07,-669.27 1992.53,-661.87 1987.81,-663.2"/>
<text text-anchor="middle" x="1322.5" y="-77.8" font-family="DejaVu Sans" font-size="9.00" fill="#34495e">acc / wide source</text>
</g>
<!-- mrf -->
<g id="node7" class="node">
<title>mrf</title>
<path fill="#eaf5ff" stroke="#51606f" d="M706.5,-142C706.5,-142 580.5,-142 580.5,-142 574.5,-142 568.5,-136 568.5,-130 568.5,-130 568.5,-106 568.5,-106 568.5,-100 574.5,-94 580.5,-94 580.5,-94 706.5,-94 706.5,-94 712.5,-94 718.5,-100 718.5,-106 718.5,-106 718.5,-130 718.5,-130 718.5,-136 712.5,-142 706.5,-142"/>
<text text-anchor="middle" x="643.5" y="-127.2" font-family="DejaVu Sans" font-size="11.00">MRF</text>
<text text-anchor="middle" x="643.5" y="-115.2" font-family="DejaVu Sans" font-size="11.00">4 rows x LANES bit</text>
<text text-anchor="middle" x="643.5" y="-103.2" font-family="DejaVu Sans" font-size="11.00">2 read / 1 masked write</text>
</g>
<!-- mrf&#45;&gt;exec_mask -->
<g id="edge20" class="edge">
<title>mrf&#45;&gt;exec_mask</title>
<path fill="none" stroke="#2f6f9f" d="M718.66,-128.81C797.82,-140.35 912,-157 912,-157 912,-157 1016,-596 1016,-596 1016,-596 1038.03,-602.11 1063.14,-609.07"/>
<polygon fill="#2f6f9f" stroke="#2f6f9f" points="1062.53,-611.45 1069.93,-610.96 1063.84,-606.72 1062.53,-611.45"/>
<text text-anchor="middle" x="964" y="-480.8" font-family="DejaVu Sans" font-size="9.00" fill="#34495e">exec mask</text>
</g>
<!-- mrf&#45;&gt;lanes -->
<g id="edge21" class="edge">
<title>mrf&#45;&gt;lanes</title>
<path fill="none" stroke="#2f6f9f" d="M718.81,-112.45C806.06,-105.93 939,-96 939,-96 939,-96 1283,-95 1283,-95 1283,-95 1362,-95 1362,-95 1362,-95 1831,-264 1831,-264 1831,-264 1936.02,-537.69 1984.04,-662.85"/>
<polygon fill="#2f6f9f" stroke="#2f6f9f" points="1981.76,-663.77 1986.56,-669.43 1986.34,-662.01 1981.76,-663.77"/>
<text text-anchor="middle" x="1322.5" y="-97.8" font-family="DejaVu Sans" font-size="9.00" fill="#34495e">select bits</text>
</g>
<!-- mrf&#45;&gt;mask_alu -->
<g id="edge22" class="edge">
<title>mrf&#45;&gt;mask_alu</title>
<path fill="none" stroke="#2f6f9f" d="M718.58,-127.19C901.9,-149.93 1362,-207 1362,-207 1362,-207 1831,-440 1831,-440 1831,-440 1876,-794 1876,-794 1876,-794 1895.55,-799.8 1919.58,-806.93"/>
<polygon fill="#2f6f9f" stroke="#2f6f9f" points="1919.06,-809.33 1926.47,-808.97 1920.45,-804.63 1919.06,-809.33"/>
<text text-anchor="middle" x="1322.5" y="-209.8" font-family="DejaVu Sans" font-size="9.00" fill="#34495e">A / B mask data</text>
</g>
<!-- route_a&#45;&gt;lanes -->
<g id="edge16" class="edge">
<title>route_a&#45;&gt;lanes</title>
<path fill="none" stroke="#2f6f9f" d="M1705.81,-622.79C1775.69,-635.36 1857,-650 1857,-650 1857,-650 1870.71,-656.74 1889.85,-666.15"/>
<polygon fill="#2f6f9f" stroke="#2f6f9f" points="1889.18,-668.55 1896.54,-669.44 1891.34,-664.16 1889.18,-668.55"/>
<text text-anchor="middle" x="1853.5" y="-652.8" font-family="DejaVu Sans" font-size="9.00" fill="#34495e">A</text>
</g>
<!-- route_a&#45;&gt;compact -->
<g id="edge17" class="edge">
<title>route_a&#45;&gt;compact</title>
<path fill="none" stroke="#2f6f9f" d="M1705.58,-625.68C1765.67,-638.29 1831,-652 1831,-652 1831,-652 1876,-872 1876,-872 1876,-872 1895.55,-877.8 1919.58,-884.93"/>
<polygon fill="#2f6f9f" stroke="#2f6f9f" points="1919.06,-887.33 1926.47,-886.97 1920.45,-882.63 1919.06,-887.33"/>
<text text-anchor="middle" x="1853.5" y="-777.8" font-family="DejaVu Sans" font-size="9.00" fill="#34495e">A</text>
</g>
<!-- adjacent -->
<g id="node9" class="node">
<title>adjacent</title>
<path fill="#f4fbf5" stroke="#51606f" d="M1190.5,-491C1190.5,-491 1081.5,-491 1081.5,-491 1075.5,-491 1069.5,-485 1069.5,-479 1069.5,-479 1069.5,-467 1069.5,-467 1069.5,-461 1075.5,-455 1081.5,-455 1081.5,-455 1190.5,-455 1190.5,-455 1196.5,-455 1202.5,-461 1202.5,-467 1202.5,-467 1202.5,-479 1202.5,-479 1202.5,-485 1196.5,-491 1190.5,-491"/>
<text text-anchor="middle" x="1136" y="-476.2" font-family="DejaVu Sans" font-size="11.00">Adjacent SIMD&#45;group</text>
<text text-anchor="middle" x="1136" y="-464.2" font-family="DejaVu Sans" font-size="11.00">boundary elements</text>
</g>
<!-- adjacent&#45;&gt;route_a -->
<g id="edge15" class="edge">
<title>adjacent&#45;&gt;route_a</title>
<path fill="none" stroke="#2f6f9f" d="M1202.73,-490.08C1233.72,-498.13 1264,-506 1264,-506 1264,-506 1283,-552 1283,-552 1283,-552 1405.35,-572.14 1499.21,-587.59"/>
<polygon fill="#2f6f9f" stroke="#2f6f9f" points="1498.9,-590.02 1506.2,-588.74 1499.69,-585.18 1498.9,-590.02"/>
<text text-anchor="middle" x="1322.5" y="-566.8" font-family="DejaVu Sans" font-size="9.00" fill="#34495e">slide boundary</text>
</g>
<!-- imm_broadcast&#45;&gt;b_mux -->
<g id="edge13" class="edge">
<title>imm_broadcast&#45;&gt;b_mux</title>
<path fill="none" stroke="#2f6f9f" d="M1222.57,-542.22C1285.94,-535.72 1374.04,-526.69 1449.71,-518.93"/>
<polygon fill="#2f6f9f" stroke="#2f6f9f" points="1450.28,-521.33 1457,-518.18 1449.78,-516.46 1450.28,-521.33"/>
<text text-anchor="middle" x="1322.5" y="-537.8" font-family="DejaVu Sans" font-size="9.00" fill="#34495e">same value / lane</text>
</g>
<!-- imm_broadcast&#45;&gt;lanes -->
<g id="edge14" class="edge">
<title>imm_broadcast&#45;&gt;lanes</title>
<path fill="none" stroke="#2f6f9f" d="M1221.71,-581.02C1245.01,-589.27 1264,-596 1264,-596 1264,-596 1389,-644 1389,-644 1389,-644 1831,-701 1831,-701 1831,-701 1851.66,-703.69 1878.84,-707.23"/>
<polygon fill="#2f6f9f" stroke="#2f6f9f" points="1878.62,-709.68 1885.88,-708.15 1879.25,-704.82 1878.62,-709.68"/>
<text text-anchor="middle" x="1606" y="-703.8" font-family="DejaVu Sans" font-size="9.00" fill="#34495e">WADD/WSUB align</text>
</g>
<!-- b_mux&#45;&gt;lanes -->
<g id="edge18" class="edge">
<title>b_mux&#45;&gt;lanes</title>
<path fill="none" stroke="#2f6f9f" d="M1702.32,-529.81C1763.29,-546.96 1831,-566 1831,-566 1831,-566 1890.85,-619.57 1940.84,-664.33"/>
<polygon fill="#2f6f9f" stroke="#2f6f9f" points="1939.41,-666.34 1946.26,-669.18 1942.68,-662.69 1939.41,-666.34"/>
<text text-anchor="middle" x="1853.5" y="-590.8" font-family="DejaVu Sans" font-size="9.00" fill="#34495e">B</text>
</g>
<!-- exec_mask&#45;&gt;lanes -->
<g id="edge23" class="edge">
<title>exec_mask&#45;&gt;lanes</title>
<path fill="none" stroke="#2f6f9f" d="M1168.68,-647.01C1211.62,-671.42 1283,-712 1283,-712 1283,-712 1850,-745 1850,-745 1850,-745 1857,-745 1857,-745 1857,-745 1865.51,-743.81 1878.49,-742"/>
<polygon fill="#2f6f9f" stroke="#2f6f9f" points="1879.07,-744.39 1885.66,-741 1878.39,-739.54 1879.07,-744.39"/>
<text text-anchor="middle" x="1606" y="-745.8" font-family="DejaVu Sans" font-size="9.00" fill="#34495e">lane enable</text>
</g>
<!-- exec_mask&#45;&gt;compact -->
<g id="edge24" class="edge">
<title>exec_mask&#45;&gt;compact</title>
<path fill="none" stroke="#2f6f9f" d="M1161.44,-647.08C1203,-677.82 1283,-737 1283,-737 1283,-737 1718.14,-841.51 1913.96,-888.54"/>
<polygon fill="#2f6f9f" stroke="#2f6f9f" points="1913.45,-890.93 1920.83,-890.18 1914.59,-886.17 1913.45,-890.93"/>
<text text-anchor="middle" x="1606" y="-870.8" font-family="DejaVu Sans" font-size="9.00" fill="#34495e">selection mask</text>
</g>
<!-- narrow_result -->
<g id="node16" class="node">
<title>narrow_result</title>
<path fill="#fff8ef" stroke="#51606f" d="M2359,-803C2359,-803 2263,-803 2263,-803 2257,-803 2251,-797 2251,-791 2251,-791 2251,-779 2251,-779 2251,-773 2257,-767 2263,-767 2263,-767 2359,-767 2359,-767 2365,-767 2371,-773 2371,-779 2371,-779 2371,-791 2371,-791 2371,-797 2365,-803 2359,-803"/>
<text text-anchor="middle" x="2311" y="-788.2" font-family="DejaVu Sans" font-size="11.00">narrow result mux</text>
<text text-anchor="middle" x="2311" y="-776.2" font-family="DejaVu Sans" font-size="11.00">LANES x ELEM_W</text>
</g>
<!-- lanes&#45;&gt;narrow_result -->
<g id="edge25" class="edge">
<title>lanes&#45;&gt;narrow_result</title>
<path fill="none" stroke="#2f6f9f" d="M2131.16,-733.64C2179.58,-737.48 2224,-741 2224,-741 2224,-741 2246.23,-752.37 2268.08,-763.55"/>
<polygon fill="#2f6f9f" stroke="#2f6f9f" points="2267.18,-765.84 2274.52,-766.85 2269.41,-761.48 2267.18,-765.84"/>
</g>
<!-- wide_result -->
<g id="node17" class="node">
<title>wide_result</title>
<path fill="#fff8ef" stroke="#51606f" d="M2353,-737C2353,-737 2269,-737 2269,-737 2263,-737 2257,-731 2257,-725 2257,-725 2257,-713 2257,-713 2257,-707 2263,-701 2269,-701 2269,-701 2353,-701 2353,-701 2359,-701 2365,-707 2365,-713 2365,-713 2365,-725 2365,-725 2365,-731 2359,-737 2353,-737"/>
<text text-anchor="middle" x="2311" y="-722.2" font-family="DejaVu Sans" font-size="11.00">wide result</text>
<text text-anchor="middle" x="2311" y="-710.2" font-family="DejaVu Sans" font-size="11.00">LANES x ACC_W</text>
</g>
<!-- lanes&#45;&gt;wide_result -->
<g id="edge31" class="edge">
<title>lanes&#45;&gt;wide_result</title>
<path fill="none" stroke="#2f6f9f" d="M2131.29,-721.97C2172,-721.3 2215.6,-720.57 2249.54,-720.01"/>
<polygon fill="#2f6f9f" stroke="#2f6f9f" points="2249.67,-722.45 2256.63,-719.89 2249.59,-717.55 2249.67,-722.45"/>
</g>
<!-- predicate -->
<g id="node18" class="node">
<title>predicate</title>
<path fill="#fff8ef" stroke="#51606f" d="M2352,-869C2352,-869 2270,-869 2270,-869 2264,-869 2258,-863 2258,-857 2258,-857 2258,-845 2258,-845 2258,-839 2264,-833 2270,-833 2270,-833 2352,-833 2352,-833 2358,-833 2364,-839 2364,-845 2364,-845 2364,-857 2364,-857 2364,-863 2358,-869 2352,-869"/>
<text text-anchor="middle" x="2311" y="-854.2" font-family="DejaVu Sans" font-size="11.00">predicate result</text>
<text text-anchor="middle" x="2311" y="-842.2" font-family="DejaVu Sans" font-size="11.00">LANES bits</text>
</g>
<!-- lanes&#45;&gt;predicate -->
<g id="edge32" class="edge">
<title>lanes&#45;&gt;predicate</title>
<path fill="none" stroke="#2f6f9f" d="M2131.16,-762.57C2179.58,-777.92 2224,-792 2224,-792 2224,-792 2251,-818 2251,-818 2251,-818 2260.23,-823.16 2271.39,-829.4"/>
<polygon fill="#2f6f9f" stroke="#2f6f9f" points="2270.43,-831.68 2277.74,-832.96 2272.82,-827.4 2270.43,-831.68"/>
</g>
<!-- compact&#45;&gt;narrow_result -->
<g id="edge26" class="edge">
<title>compact&#45;&gt;narrow_result</title>
<path fill="none" stroke="#2f6f9f" d="M2085.6,-886.97C2111.02,-878.94 2133,-872 2133,-872 2133,-872 2160,-861 2160,-861 2160,-861 2224,-851 2224,-851 2224,-851 2251,-818 2251,-818 2251,-818 2260.23,-812.84 2271.39,-806.6"/>
<polygon fill="#2f6f9f" stroke="#2f6f9f" points="2272.82,-808.6 2277.74,-803.04 2270.43,-804.32 2272.82,-808.6"/>
</g>
<!-- compact&#45;&gt;predicate -->
<g id="edge27" class="edge">
<title>compact&#45;&gt;predicate</title>
<path fill="none" stroke="#2f6f9f" d="M2096.01,-893.73C2145.72,-883.8 2206.84,-871.6 2251.02,-862.78"/>
<polygon fill="#2f6f9f" stroke="#2f6f9f" points="2251.58,-865.16 2257.96,-861.39 2250.62,-860.36 2251.58,-865.16"/>
<text text-anchor="middle" x="2192" y="-881.8" font-family="DejaVu Sans" font-size="9.00" fill="#34495e">result mask</text>
</g>
<!-- scalar_out -->
<g id="node23" class="node">
<title>scalar_out</title>
<path fill="#f8effa" stroke="#51606f" d="M3214,-842C3214,-842 3041,-842 3041,-842 3035,-842 3029,-836 3029,-830 3029,-830 3029,-806 3029,-806 3029,-800 3035,-794 3041,-794 3041,-794 3214,-794 3214,-794 3220,-794 3226,-800 3226,-806 3226,-806 3226,-830 3226,-830 3226,-836 3220,-842 3214,-842"/>
<text text-anchor="middle" x="3127.5" y="-827.2" font-family="DejaVu Sans" font-size="11.00">Scalar results to sequencer</text>
<text text-anchor="middle" x="3127.5" y="-815.2" font-family="DejaVu Sans" font-size="11.00">reduction: value + index + valid</text>
<text text-anchor="middle" x="3127.5" y="-803.2" font-family="DejaVu Sans" font-size="11.00">compact: count + valid</text>
</g>
<!-- compact&#45;&gt;scalar_out -->
<g id="edge28" class="edge">
<title>compact&#45;&gt;scalar_out</title>
<path fill="none" stroke="#2f6f9f" d="M2085.6,-886.97C2111.02,-878.94 2133,-872 2133,-872 2133,-872 2160,-792 2160,-792 2160,-792 2251,-686 2251,-686 2251,-686 2310,-655 2310,-655 2310,-655 2310,-655 2811.5,-655 2811.5,-655 2984.02,-744.27 3073.71,-790.68"/>
<polygon fill="#2f6f9f" stroke="#2f6f9f" points="3072.68,-792.91 3080.02,-793.95 3074.93,-788.56 3072.68,-792.91"/>
<text text-anchor="middle" x="2509" y="-657.8" font-family="DejaVu Sans" font-size="9.00" fill="#34495e">count + valid</text>
</g>
<!-- mask_alu&#45;&gt;narrow_result -->
<g id="edge29" class="edge">
<title>mask_alu&#45;&gt;narrow_result</title>
<path fill="none" stroke="#2f6f9f" d="M2133.03,-813.27C2170.95,-807.21 2211.22,-800.78 2243.75,-795.58"/>
<polygon fill="#2f6f9f" stroke="#2f6f9f" points="2244.47,-797.95 2251,-794.42 2243.7,-793.11 2244.47,-797.95"/>
<text text-anchor="middle" x="2192" y="-809.8" font-family="DejaVu Sans" font-size="9.00" fill="#34495e">all ones / zero</text>
</g>
<!-- mask_alu&#45;&gt;predicate -->
<g id="edge30" class="edge">
<title>mask_alu&#45;&gt;predicate</title>
<path fill="none" stroke="#2f6f9f" d="M2133.03,-840.4C2173.68,-842.83 2217.03,-845.43 2250.65,-847.45"/>
<polygon fill="#2f6f9f" stroke="#2f6f9f" points="2250.54,-849.89 2257.67,-847.87 2250.83,-845 2250.54,-849.89"/>
<text text-anchor="middle" x="2192" y="-847.8" font-family="DejaVu Sans" font-size="9.00" fill="#34495e">boolean result</text>
</g>
<!-- narrow_result&#45;&gt;reduce -->
<g id="edge33" class="edge">
<title>narrow_result&#45;&gt;reduce</title>
<path fill="none" stroke="#2f6f9f" d="M2344.26,-803.04C2358.04,-810.75 2371,-818 2371,-818 2371,-818 2426.21,-855.48 2466.53,-882.85"/>
<polygon fill="#2f6f9f" stroke="#2f6f9f" points="2465.19,-884.9 2472.36,-886.81 2467.95,-880.85 2465.19,-884.9"/>
</g>
<!-- vrf_commit -->
<g id="node20" class="node">
<title>vrf_commit</title>
<path fill="#f8effa" stroke="#51606f" d="M3201.5,-974C3201.5,-974 3053.5,-974 3053.5,-974 3047.5,-974 3041.5,-968 3041.5,-962 3041.5,-962 3041.5,-950 3041.5,-950 3041.5,-944 3047.5,-938 3053.5,-938 3053.5,-938 3201.5,-938 3201.5,-938 3207.5,-938 3213.5,-944 3213.5,-950 3213.5,-950 3213.5,-962 3213.5,-962 3213.5,-968 3207.5,-974 3201.5,-974"/>
<text text-anchor="middle" x="3127.5" y="-959.2" font-family="DejaVu Sans" font-size="11.00">VRF execute/cfg write mux</text>
<text text-anchor="middle" x="3127.5" y="-947.2" font-family="DejaVu Sans" font-size="11.00">masked commit at posedge</text>
</g>
<!-- narrow_result&#45;&gt;vrf_commit -->
<g id="edge34" class="edge">
<title>narrow_result&#45;&gt;vrf_commit</title>
<path fill="none" stroke="#2f6f9f" d="M2371.13,-790.38C2473.99,-799.73 2675,-818 2675,-818 2675,-818 3002,-880 3002,-880 3002,-880 3029,-923 3029,-923 3029,-923 3046.29,-928.85 3066.31,-935.63"/>
<polygon fill="#2f6f9f" stroke="#2f6f9f" points="3065.77,-938.03 3073.19,-937.96 3067.34,-933.39 3065.77,-938.03"/>
</g>
<!-- arf_commit -->
<g id="node21" class="node">
<title>arf_commit</title>
<path fill="#f8effa" stroke="#51606f" d="M3201.5,-908C3201.5,-908 3053.5,-908 3053.5,-908 3047.5,-908 3041.5,-902 3041.5,-896 3041.5,-896 3041.5,-884 3041.5,-884 3041.5,-878 3047.5,-872 3053.5,-872 3053.5,-872 3201.5,-872 3201.5,-872 3207.5,-872 3213.5,-878 3213.5,-884 3213.5,-884 3213.5,-896 3213.5,-896 3213.5,-902 3207.5,-908 3201.5,-908"/>
<text text-anchor="middle" x="3127.5" y="-893.2" font-family="DejaVu Sans" font-size="11.00">ARF execute/cfg write mux</text>
<text text-anchor="middle" x="3127.5" y="-881.2" font-family="DejaVu Sans" font-size="11.00">masked commit at posedge</text>
</g>
<!-- wide_result&#45;&gt;arf_commit -->
<g id="edge35" class="edge">
<title>wide_result&#45;&gt;arf_commit</title>
<path fill="none" stroke="#2f6f9f" d="M2365.07,-727.31C2512.97,-750.45 2919,-814 2919,-814 2919,-814 3029,-857 3029,-857 3029,-857 3046.29,-862.85 3066.31,-869.63"/>
<polygon fill="#2f6f9f" stroke="#2f6f9f" points="3065.77,-872.03 3073.19,-871.96 3067.34,-867.39 3065.77,-872.03"/>
</g>
<!-- mrf_commit -->
<g id="node22" class="node">
<title>mrf_commit</title>
<path fill="#f8effa" stroke="#51606f" d="M3201.5,-1040C3201.5,-1040 3053.5,-1040 3053.5,-1040 3047.5,-1040 3041.5,-1034 3041.5,-1028 3041.5,-1028 3041.5,-1016 3041.5,-1016 3041.5,-1010 3047.5,-1004 3053.5,-1004 3053.5,-1004 3201.5,-1004 3201.5,-1004 3207.5,-1004 3213.5,-1010 3213.5,-1016 3213.5,-1016 3213.5,-1028 3213.5,-1028 3213.5,-1034 3207.5,-1040 3201.5,-1040"/>
<text text-anchor="middle" x="3127.5" y="-1025.2" font-family="DejaVu Sans" font-size="11.00">MRF execute/cfg write mux</text>
<text text-anchor="middle" x="3127.5" y="-1013.2" font-family="DejaVu Sans" font-size="11.00">masked commit at posedge</text>
</g>
<!-- predicate&#45;&gt;mrf_commit -->
<g id="edge36" class="edge">
<title>predicate&#45;&gt;mrf_commit</title>
<path fill="none" stroke="#2f6f9f" d="M2364.15,-854.8C2447.15,-860.85 2600,-872 2600,-872 2600,-872 3002,-923 3002,-923 3002,-923 3029,-989 3029,-989 3029,-989 3046.29,-994.85 3066.31,-1001.63"/>
<polygon fill="#2f6f9f" stroke="#2f6f9f" points="3065.77,-1004.03 3073.19,-1003.96 3067.34,-999.39 3065.77,-1004.03"/>
</g>
<!-- reduce&#45;&gt;scalar_out -->
<g id="edge37" class="edge">
<title>reduce&#45;&gt;scalar_out</title>
<path fill="none" stroke="#2f6f9f" d="M2592.19,-898.6C2702.99,-881.89 2900.37,-852.11 3021.72,-833.81"/>
<polygon fill="#2f6f9f" stroke="#2f6f9f" points="3022.33,-836.19 3028.88,-832.73 3021.6,-831.35 3022.33,-836.19"/>
</g>
<!-- reduce&#45;&gt;side_effect_gate -->
<g id="edge39" class="edge">
<title>reduce&#45;&gt;side_effect_gate</title>
<path fill="none" stroke="#8a6d1d" stroke-dasharray="5,2" d="M2592.24,-932.14C2635.96,-943.38 2689.4,-957.12 2732.33,-968.16"/>
<polygon fill="#8a6d1d" stroke="#8a6d1d" points="2731.74,-970.54 2739.13,-969.91 2732.96,-965.79 2731.74,-970.54"/>
<text text-anchor="middle" x="2647" y="-953.8" font-family="DejaVu Sans" font-size="9.00" fill="#34495e">reduce legal</text>
</g>
<!-- side_effect_gate&#45;&gt;vrf_commit -->
<g id="edge40" class="edge">
<title>side_effect_gate&#45;&gt;vrf_commit</title>
<path fill="none" stroke="#8a6d1d" stroke-dasharray="5,2" d="M2919.28,-978.95C2962.38,-975.33 3002,-972 3002,-972 3002,-972 3015.89,-970.22 3034.39,-967.84"/>
<polygon fill="#8a6d1d" stroke="#8a6d1d" points="3034.76,-970.26 3041.39,-966.94 3034.14,-965.4 3034.76,-970.26"/>
<text text-anchor="middle" x="2974" y="-978.8" font-family="DejaVu Sans" font-size="9.00" fill="#34495e">write enable</text>
</g>
<!-- side_effect_gate&#45;&gt;arf_commit -->
<g id="edge41" class="edge">
<title>side_effect_gate&#45;&gt;arf_commit</title>
<path fill="none" stroke="#8a6d1d" stroke-dasharray="5,2" d="M2919.28,-974.99C2962.38,-969.78 3002,-965 3002,-965 3002,-965 3029,-923 3029,-923 3029,-923 3046.29,-917.15 3066.31,-910.37"/>
<polygon fill="#8a6d1d" stroke="#8a6d1d" points="3067.34,-912.61 3073.19,-908.04 3065.77,-907.97 3067.34,-912.61"/>
</g>
<!-- side_effect_gate&#45;&gt;mrf_commit -->
<g id="edge42" class="edge">
<title>side_effect_gate&#45;&gt;mrf_commit</title>
<path fill="none" stroke="#8a6d1d" stroke-dasharray="5,2" d="M2919.02,-999.61C2956.45,-1003.65 2998.08,-1008.14 3034.17,-1012.03"/>
<polygon fill="#8a6d1d" stroke="#8a6d1d" points="3034.09,-1014.49 3041.31,-1012.8 3034.61,-1009.62 3034.09,-1014.49"/>
</g>
<!-- side_effect_gate&#45;&gt;scalar_out -->
<g id="edge43" class="edge">
<title>side_effect_gate&#45;&gt;scalar_out</title>
<path fill="none" stroke="#8a6d1d" stroke-dasharray="5,2" d="M2841.74,-969.79C2901.51,-933.79 3029,-857 3029,-857 3029,-857 3042.52,-851.59 3059.5,-844.8"/>
<polygon fill="#8a6d1d" stroke="#8a6d1d" points="3060.83,-846.91 3066.42,-842.03 3059.01,-842.36 3060.83,-846.91"/>
<text text-anchor="middle" x="2974" y="-908.8" font-family="DejaVu Sans" font-size="9.00" fill="#34495e">valid</text>
</g>
<!-- legend -->
<g id="node25" class="node">
<title>legend</title>
<polygon fill="#ffffff" stroke="#9aa7b3" points="301,-1281 30,-1281 30,-1197 307,-1197 307,-1275 301,-1281"/>
<polyline fill="none" stroke="#9aa7b3" points="301,-1281 301,-1275 "/>
<polyline fill="none" stroke="#9aa7b3" points="307,-1275 301,-1275 "/>
<text text-anchor="middle" x="168.5" y="-1266.2" font-family="DejaVu Sans" font-size="11.00">Legend</text>
<text text-anchor="middle" x="168.5" y="-1254.2" font-family="DejaVu Sans" font-size="11.00">blue solid: data path</text>
<text text-anchor="middle" x="168.5" y="-1242.2" font-family="DejaVu Sans" font-size="11.00">gray dashed: issued control</text>
<text text-anchor="middle" x="168.5" y="-1230.2" font-family="DejaVu Sans" font-size="11.00">purple boxes: cfg state transfer / commit</text>
<text text-anchor="middle" x="168.5" y="-1218.2" font-family="DejaVu Sans" font-size="11.00">All execute/route/reduce logic is combinational</text>
<text text-anchor="middle" x="168.5" y="-1206.2" font-family="DejaVu Sans" font-size="11.00">RF masked writes commit on the clock edge</text>
</g>
</g>
</svg>
