<?xml version="1.0" encoding="UTF-8" standalone="no"?>
<!DOCTYPE svg PUBLIC "-//W3C//DTD SVG 1.1//EN"
 "http://www.w3.org/Graphics/SVG/1.1/DTD/svg11.dtd">
<!-- Generated by graphviz version 2.43.0 (0)
 -->
<!-- Title: wide_narrow_dataflow Pages: 1 -->
<svg width="1073pt" height="1000pt"
 viewBox="0.00 0.00 1072.80 999.80" xmlns="http://www.w3.org/2000/svg" xmlns:xlink="http://www.w3.org/1999/xlink">
<g id="graph0" class="graph" transform="scale(1 1) rotate(0) translate(14.4 985.4)">
<title>wide_narrow_dataflow</title>
<polygon fill="#ffffff" stroke="transparent" points="-14.4,14.4 -14.4,-985.4 1058.4,-985.4 1058.4,14.4 -14.4,14.4"/>
<text text-anchor="middle" x="522" y="-952.6" font-family="DejaVu Sans" font-size="18.00">Implemented VRF / ARF data transformations and explicit gaps</text>
<!-- vrf_a -->
<g id="node1" class="node">
<title>vrf_a</title>
<path fill="#eaf5ff" stroke="#51606f" d="M437,-607C437,-607 316,-607 316,-607 310,-607 304,-601 304,-595 304,-595 304,-583 304,-583 304,-577 310,-571 316,-571 316,-571 437,-571 437,-571 443,-571 449,-577 449,-583 449,-583 449,-595 449,-595 449,-601 443,-607 437,-607"/>
<text text-anchor="middle" x="376.5" y="-592.2" font-family="DejaVu Sans" font-size="11.00">VRF&#45;A</text>
<text text-anchor="middle" x="376.5" y="-580.2" font-family="DejaVu Sans" font-size="11.00">per&#45;lane narrow values</text>
</g>
<!-- widen -->
<g id="node6" class="node">
<title>widen</title>
<path fill="#e8f7ec" stroke="#4f8a5b" d="M748,-372C748,-372 631,-372 631,-372 625,-372 619,-366 619,-360 619,-360 619,-336 619,-336 619,-330 625,-324 631,-324 631,-324 748,-324 748,-324 754,-324 760,-330 760,-336 760,-336 760,-360 760,-360 760,-366 754,-372 748,-372"/>
<text text-anchor="middle" x="689.5" y="-357.2" font-family="DejaVu Sans" font-size="11.00">WIDEN_U/S</text>
<text text-anchor="middle" x="689.5" y="-345.2" font-family="DejaVu Sans" font-size="11.00">extend(A) &lt;&lt; B</text>
<text text-anchor="middle" x="689.5" y="-333.2" font-family="DejaVu Sans" font-size="11.00">VRF &#45;&gt; new ARF value</text>
</g>
<!-- vrf_a&#45;&gt;widen -->
<g id="edge3" class="edge">
<title>vrf_a&#45;&gt;widen</title>
<path fill="none" stroke="#2f6f9f" d="M390.43,-570.86C417.58,-532.77 478,-448 478,-448 478,-448 536,-388 536,-388 536,-388 573.86,-378.07 611.86,-368.1"/>
<polygon fill="#2f6f9f" stroke="#2f6f9f" points="612.79,-370.39 618.94,-366.24 611.55,-365.65 612.79,-370.39"/>
<text text-anchor="middle" x="492.5" y="-450.8" font-family="DejaVu Sans" font-size="9.00" fill="#34495e">A</text>
</g>
<!-- mul -->
<g id="node7" class="node">
<title>mul</title>
<path fill="#e8f7ec" stroke="#4f8a5b" d="M749.5,-212C749.5,-212 629.5,-212 629.5,-212 623.5,-212 617.5,-206 617.5,-200 617.5,-200 617.5,-176 617.5,-176 617.5,-170 623.5,-164 629.5,-164 629.5,-164 749.5,-164 749.5,-164 755.5,-164 761.5,-170 761.5,-176 761.5,-176 761.5,-200 761.5,-200 761.5,-206 755.5,-212 749.5,-212"/>
<text text-anchor="middle" x="689.5" y="-197.2" font-family="DejaVu Sans" font-size="11.00">MUL_U/S</text>
<text text-anchor="middle" x="689.5" y="-185.2" font-family="DejaVu Sans" font-size="11.00">A * B</text>
<text text-anchor="middle" x="689.5" y="-173.2" font-family="DejaVu Sans" font-size="11.00">VRF x VRF/imm &#45;&gt; ARF</text>
</g>
<!-- vrf_a&#45;&gt;mul -->
<g id="edge6" class="edge">
<title>vrf_a&#45;&gt;mul</title>
<path fill="none" stroke="#2f6f9f" d="M389.31,-570.67C409.61,-539.14 449,-478 449,-478 449,-478 478,-319 478,-319 478,-319 507,-279 507,-279 507,-279 536,-228 536,-228 536,-228 572.75,-218.36 610.18,-208.54"/>
<polygon fill="#2f6f9f" stroke="#2f6f9f" points="611.01,-210.86 617.16,-206.71 609.77,-206.12 611.01,-210.86"/>
<text text-anchor="middle" x="492.5" y="-321.8" font-family="DejaVu Sans" font-size="9.00" fill="#34495e">A</text>
</g>
<!-- mac -->
<g id="node8" class="node">
<title>mac</title>
<path fill="#e8f7ec" stroke="#4f8a5b" d="M756,-452C756,-452 623,-452 623,-452 617,-452 611,-446 611,-440 611,-440 611,-416 611,-416 611,-410 617,-404 623,-404 623,-404 756,-404 756,-404 762,-404 768,-410 768,-416 768,-416 768,-440 768,-440 768,-446 762,-452 756,-452"/>
<text text-anchor="middle" x="689.5" y="-437.2" font-family="DejaVu Sans" font-size="11.00">MAC_U/S</text>
<text text-anchor="middle" x="689.5" y="-425.2" font-family="DejaVu Sans" font-size="11.00">ARF + A * B</text>
<text text-anchor="middle" x="689.5" y="-413.2" font-family="DejaVu Sans" font-size="11.00">B may be coefficient 2^s</text>
</g>
<!-- vrf_a&#45;&gt;mac -->
<g id="edge9" class="edge">
<title>vrf_a&#45;&gt;mac</title>
<path fill="none" stroke="#2f6f9f" d="M442.63,-570.89C474.88,-561.93 507,-553 507,-553 507,-553 536,-468 536,-468 536,-468 568.73,-459.42 603.86,-450.2"/>
<polygon fill="#2f6f9f" stroke="#2f6f9f" points="604.76,-452.5 610.91,-448.35 603.52,-447.76 604.76,-452.5"/>
<text text-anchor="middle" x="492.5" y="-562.8" font-family="DejaVu Sans" font-size="9.00" fill="#34495e">A</text>
</g>
<!-- wadd -->
<g id="node9" class="node">
<title>wadd</title>
<path fill="#e8f7ec" stroke="#4f8a5b" d="M773.5,-864C773.5,-864 605.5,-864 605.5,-864 599.5,-864 593.5,-858 593.5,-852 593.5,-852 593.5,-828 593.5,-828 593.5,-822 599.5,-816 605.5,-816 605.5,-816 773.5,-816 773.5,-816 779.5,-816 785.5,-822 785.5,-828 785.5,-828 785.5,-852 785.5,-852 785.5,-858 779.5,-864 773.5,-864"/>
<text text-anchor="middle" x="689.5" y="-849.2" font-family="DejaVu Sans" font-size="11.00">WADD_U/S</text>
<text text-anchor="middle" x="689.5" y="-837.2" font-family="DejaVu Sans" font-size="11.00">ARF + aligned(A) + aligned(B)</text>
<text text-anchor="middle" x="689.5" y="-825.2" font-family="DejaVu Sans" font-size="11.00">3:2 compressor, one ARF result</text>
</g>
<!-- vrf_a&#45;&gt;wadd -->
<g id="edge13" class="edge">
<title>vrf_a&#45;&gt;wadd</title>
<path fill="none" stroke="#2f6f9f" d="M391.29,-607.36C429.85,-658.69 536,-800 536,-800 536,-800 560.35,-806.39 589.59,-814.06"/>
<polygon fill="#2f6f9f" stroke="#2f6f9f" points="589.32,-816.52 596.71,-815.92 590.56,-811.78 589.32,-816.52"/>
<text text-anchor="middle" x="492.5" y="-761.8" font-family="DejaVu Sans" font-size="9.00" fill="#34495e">A</text>
</g>
<!-- wsub -->
<g id="node10" class="node">
<title>wsub</title>
<path fill="#e8f7ec" stroke="#4f8a5b" d="M773.5,-784C773.5,-784 605.5,-784 605.5,-784 599.5,-784 593.5,-778 593.5,-772 593.5,-772 593.5,-748 593.5,-748 593.5,-742 599.5,-736 605.5,-736 605.5,-736 773.5,-736 773.5,-736 779.5,-736 785.5,-742 785.5,-748 785.5,-748 785.5,-772 785.5,-772 785.5,-778 779.5,-784 773.5,-784"/>
<text text-anchor="middle" x="689.5" y="-769.2" font-family="DejaVu Sans" font-size="11.00">WSUB_U/S</text>
<text text-anchor="middle" x="689.5" y="-757.2" font-family="DejaVu Sans" font-size="11.00">ARF + aligned(A) &#45; aligned(B)</text>
<text text-anchor="middle" x="689.5" y="-745.2" font-family="DejaVu Sans" font-size="11.00">3:2 compressor, one ARF result</text>
</g>
<!-- vrf_a&#45;&gt;wsub -->
<g id="edge18" class="edge">
<title>vrf_a&#45;&gt;wsub</title>
<path fill="none" stroke="#2f6f9f" d="M427.2,-607.04C463.72,-620.29 507,-636 507,-636 507,-636 536,-720 536,-720 536,-720 560.35,-726.39 589.59,-734.06"/>
<polygon fill="#2f6f9f" stroke="#2f6f9f" points="589.32,-736.52 596.71,-735.92 590.56,-731.78 589.32,-736.52"/>
<text text-anchor="middle" x="492.5" y="-638.8" font-family="DejaVu Sans" font-size="9.00" fill="#34495e">A</text>
</g>
<!-- vrf_b -->
<g id="node2" class="node">
<title>vrf_b</title>
<path fill="#eaf5ff" stroke="#51606f" d="M148,-780C148,-780 25,-780 25,-780 19,-780 13,-774 13,-768 13,-768 13,-756 13,-756 13,-750 19,-744 25,-744 25,-744 148,-744 148,-744 154,-744 160,-750 160,-756 160,-756 160,-768 160,-768 160,-774 154,-780 148,-780"/>
<text text-anchor="middle" x="86.5" y="-765.2" font-family="DejaVu Sans" font-size="11.00">VRF&#45;B</text>
<text text-anchor="middle" x="86.5" y="-753.2" font-family="DejaVu Sans" font-size="11.00">per&#45;lane operand / shift</text>
</g>
<!-- b_mux -->
<g id="node4" class="node">
<title>b_mux</title>
<path fill="#edf9ef" stroke="#51606f" d="M364.95,-259.73C364.95,-259.73 324.42,-248.27 324.42,-248.27 318.65,-246.63 318.65,-243.37 324.42,-241.73 324.42,-241.73 364.95,-230.27 364.95,-230.27 370.73,-228.63 382.27,-228.63 388.05,-230.27 388.05,-230.27 428.58,-241.73 428.58,-241.73 434.35,-243.37 434.35,-246.63 428.58,-248.27 428.58,-248.27 388.05,-259.73 388.05,-259.73 382.27,-261.37 370.73,-261.37 364.95,-259.73"/>
<text text-anchor="middle" x="376.5" y="-242.2" font-family="DejaVu Sans" font-size="11.00">B source</text>
</g>
<!-- vrf_b&#45;&gt;b_mux -->
<g id="edge1" class="edge">
<title>vrf_b&#45;&gt;b_mux</title>
<path fill="none" stroke="#2f6f9f" d="M97.58,-743.9C141.44,-665.17 315.57,-352.59 363.33,-266.85"/>
<polygon fill="#2f6f9f" stroke="#2f6f9f" points="365.53,-267.93 366.8,-260.62 361.25,-265.54 365.53,-267.93"/>
<text text-anchor="middle" x="238.5" y="-551.8" font-family="DejaVu Sans" font-size="9.00" fill="#34495e">register form</text>
</g>
<!-- vrf_b&#45;&gt;wadd -->
<g id="edge14" class="edge">
<title>vrf_b&#45;&gt;wadd</title>
<path fill="none" stroke="#2f6f9f" d="M160.01,-777.2C182.74,-781.96 202,-786 202,-786 202,-786 443.4,-812.79 586.11,-828.64"/>
<polygon fill="#2f6f9f" stroke="#2f6f9f" points="586.03,-831.09 593.25,-829.43 586.57,-826.22 586.03,-831.09"/>
<text text-anchor="middle" x="376.5" y="-815.8" font-family="DejaVu Sans" font-size="9.00" fill="#34495e">B data</text>
</g>
<!-- vrf_b&#45;&gt;wsub -->
<g id="edge19" class="edge">
<title>vrf_b&#45;&gt;wsub</title>
<path fill="none" stroke="#2f6f9f" d="M160.29,-761.76C266.7,-761.4 465.16,-760.74 586.19,-760.34"/>
<polygon fill="#2f6f9f" stroke="#2f6f9f" points="586.34,-762.79 593.33,-760.32 586.32,-757.89 586.34,-762.79"/>
<text text-anchor="middle" x="376.5" y="-763.8" font-family="DejaVu Sans" font-size="9.00" fill="#34495e">B data</text>
</g>
<!-- scalar_imm -->
<g id="node3" class="node">
<title>scalar_imm</title>
<path fill="#edf9ef" stroke="#51606f" d="M161,-934C161,-934 12,-934 12,-934 6,-934 0,-928 0,-922 0,-922 0,-898 0,-898 0,-892 6,-886 12,-886 12,-886 161,-886 161,-886 167,-886 173,-892 173,-898 173,-898 173,-922 173,-922 173,-928 167,-934 161,-934"/>
<text text-anchor="middle" x="86.5" y="-919.2" font-family="DejaVu Sans" font-size="11.00">Broadcast scalar immediate</text>
<text text-anchor="middle" x="86.5" y="-907.2" font-family="DejaVu Sans" font-size="11.00">normal: replaces B</text>
<text text-anchor="middle" x="86.5" y="-895.2" font-family="DejaVu Sans" font-size="11.00">WADD/WSUB: shared align</text>
</g>
<!-- scalar_imm&#45;&gt;b_mux -->
<g id="edge2" class="edge">
<title>scalar_imm&#45;&gt;b_mux</title>
<path fill="none" stroke="#2f6f9f" d="M105.63,-885.82C130.73,-852.36 173,-796 173,-796 173,-796 275,-567 275,-567 275,-567 304,-410 304,-410 304,-410 346.29,-312.4 365.83,-267.33"/>
<polygon fill="#2f6f9f" stroke="#2f6f9f" points="368.11,-268.22 368.64,-260.82 363.61,-266.27 368.11,-268.22"/>
<text text-anchor="middle" x="238.5" y="-730.8" font-family="DejaVu Sans" font-size="9.00" fill="#34495e">immediate form</text>
</g>
<!-- scalar_imm&#45;&gt;wadd -->
<g id="edge15" class="edge">
<title>scalar_imm&#45;&gt;wadd</title>
<path fill="none" stroke="#2f6f9f" d="M173.11,-928.69C189.67,-932.31 202,-935 202,-935 202,-935 275,-935 275,-935 275,-935 449,-928 449,-928 449,-928 545.8,-892.43 616.32,-866.52"/>
<polygon fill="#2f6f9f" stroke="#2f6f9f" points="617.33,-868.76 623.06,-864.05 615.64,-864.16 617.33,-868.76"/>
<text text-anchor="middle" x="376.5" y="-935.8" font-family="DejaVu Sans" font-size="9.00" fill="#34495e">shared align</text>
</g>
<!-- scalar_imm&#45;&gt;wsub -->
<g id="edge20" class="edge">
<title>scalar_imm&#45;&gt;wsub</title>
<path fill="none" stroke="#2f6f9f" d="M173.17,-891.28C280.07,-867.92 449,-831 449,-831 449,-831 536,-800 536,-800 536,-800 560.35,-793.61 589.59,-785.94"/>
<polygon fill="#2f6f9f" stroke="#2f6f9f" points="590.56,-788.22 596.71,-784.08 589.32,-783.48 590.56,-788.22"/>
<text text-anchor="middle" x="376.5" y="-864.8" font-family="DejaVu Sans" font-size="9.00" fill="#34495e">shared align</text>
</g>
<!-- b_mux&#45;&gt;widen -->
<g id="edge4" class="edge">
<title>b_mux&#45;&gt;widen</title>
<path fill="none" stroke="#2f6f9f" d="M416,-251.84C454.18,-258.62 507,-268 507,-268 507,-268 536,-308 536,-308 536,-308 573.86,-317.93 611.86,-327.9"/>
<polygon fill="#2f6f9f" stroke="#2f6f9f" points="611.55,-330.35 618.94,-329.76 612.79,-325.61 611.55,-330.35"/>
<text text-anchor="middle" x="492.5" y="-270.8" font-family="DejaVu Sans" font-size="9.00" fill="#34495e">shift B</text>
</g>
<!-- b_mux&#45;&gt;mul -->
<g id="edge7" class="edge">
<title>b_mux&#45;&gt;mul</title>
<path fill="none" stroke="#2f6f9f" d="M402.86,-234.4C432.63,-221.96 478,-203 478,-203 478,-203 550.18,-197.86 610.01,-193.59"/>
<polygon fill="#2f6f9f" stroke="#2f6f9f" points="610.43,-196.02 617.23,-193.08 610.08,-191.13 610.43,-196.02"/>
<text text-anchor="middle" x="492.5" y="-205.8" font-family="DejaVu Sans" font-size="9.00" fill="#34495e">B</text>
</g>
<!-- b_mux&#45;&gt;mac -->
<g id="edge10" class="edge">
<title>b_mux&#45;&gt;mac</title>
<path fill="none" stroke="#2f6f9f" d="M392.7,-258.71C432.37,-294.5 536,-388 536,-388 536,-388 568.73,-396.58 603.86,-405.8"/>
<polygon fill="#2f6f9f" stroke="#2f6f9f" points="603.52,-408.24 610.91,-407.65 604.76,-403.5 603.52,-408.24"/>
<text text-anchor="middle" x="492.5" y="-362.8" font-family="DejaVu Sans" font-size="9.00" fill="#34495e">B</text>
</g>
<!-- wide_scale -->
<g id="node11" class="node">
<title>wide_scale</title>
<path fill="#e8f7ec" stroke="#4f8a5b" d="M769.5,-292C769.5,-292 609.5,-292 609.5,-292 603.5,-292 597.5,-286 597.5,-280 597.5,-280 597.5,-256 597.5,-256 597.5,-250 603.5,-244 609.5,-244 609.5,-244 769.5,-244 769.5,-244 775.5,-244 781.5,-250 781.5,-256 781.5,-256 781.5,-280 781.5,-280 781.5,-286 775.5,-292 769.5,-292"/>
<text text-anchor="middle" x="689.5" y="-277.2" font-family="DejaVu Sans" font-size="11.00">RSHIFT_RND_U/S</text>
<text text-anchor="middle" x="689.5" y="-265.2" font-family="DejaVu Sans" font-size="11.00">rounded ARF right shift</text>
<text text-anchor="middle" x="689.5" y="-253.2" font-family="DejaVu Sans" font-size="11.00">wide result may return to ARF</text>
</g>
<!-- b_mux&#45;&gt;wide_scale -->
<g id="edge24" class="edge">
<title>b_mux&#45;&gt;wide_scale</title>
<path fill="none" stroke="#2f6f9f" d="M411.52,-236.87C440.68,-229.91 478,-221 478,-221 478,-221 507,-221 507,-221 507,-221 547.72,-231.55 590.59,-242.65"/>
<polygon fill="#2f6f9f" stroke="#2f6f9f" points="590.09,-245.05 597.48,-244.43 591.32,-240.3 590.09,-245.05"/>
<text text-anchor="middle" x="492.5" y="-223.8" font-family="DejaVu Sans" font-size="9.00" fill="#34495e">shift B</text>
</g>
<!-- nslice -->
<g id="node12" class="node">
<title>nslice</title>
<path fill="#e8f7ec" stroke="#4f8a5b" d="M756,-48C756,-48 623,-48 623,-48 617,-48 611,-42 611,-36 611,-36 611,-12 611,-12 611,-6 617,0 623,0 623,0 756,0 756,0 762,0 768,-6 768,-12 768,-12 768,-36 768,-36 768,-42 762,-48 756,-48"/>
<text text-anchor="middle" x="689.5" y="-33.2" font-family="DejaVu Sans" font-size="11.00">NSLICE</text>
<text text-anchor="middle" x="689.5" y="-21.2" font-family="DejaVu Sans" font-size="11.00">(ARF &gt;&gt; B)[ELEM_W&#45;1:0]</text>
<text text-anchor="middle" x="689.5" y="-9.2" font-family="DejaVu Sans" font-size="11.00">no rounding / saturation</text>
</g>
<!-- b_mux&#45;&gt;nslice -->
<g id="edge27" class="edge">
<title>b_mux&#45;&gt;nslice</title>
<path fill="none" stroke="#2f6f9f" d="M384.09,-229.06C406.45,-175 478,-2 478,-2 478,-2 507,-2 507,-2 507,-2 556.49,-8 603.78,-13.73"/>
<polygon fill="#2f6f9f" stroke="#2f6f9f" points="603.49,-16.16 610.74,-14.57 604.08,-11.3 603.49,-16.16"/>
<text text-anchor="middle" x="492.5" y="-4.8" font-family="DejaVu Sans" font-size="9.00" fill="#34495e">shift B</text>
</g>
<!-- nclip -->
<g id="node13" class="node">
<title>nclip</title>
<path fill="#e8f7ec" stroke="#4f8a5b" d="M774,-116C774,-116 605,-116 605,-116 599,-116 593,-110 593,-104 593,-104 593,-92 593,-92 593,-86 599,-80 605,-80 605,-80 774,-80 774,-80 780,-80 786,-86 786,-92 786,-92 786,-104 786,-104 786,-110 780,-116 774,-116"/>
<text text-anchor="middle" x="689.5" y="-101.2" font-family="DejaVu Sans" font-size="11.00">NCLIP_U/S</text>
<text text-anchor="middle" x="689.5" y="-89.2" font-family="DejaVu Sans" font-size="11.00">round + right shift + saturation</text>
</g>
<!-- b_mux&#45;&gt;nclip -->
<g id="edge30" class="edge">
<title>b_mux&#45;&gt;nclip</title>
<path fill="none" stroke="#2f6f9f" d="M387.14,-229.95C412.29,-190.65 478,-88 478,-88 478,-88 507,-88 507,-88 507,-88 544.75,-90.08 585.81,-92.34"/>
<polygon fill="#2f6f9f" stroke="#2f6f9f" points="585.84,-94.8 592.97,-92.74 586.11,-89.9 585.84,-94.8"/>
<text text-anchor="middle" x="492.5" y="-90.8" font-family="DejaVu Sans" font-size="9.00" fill="#34495e">shift B</text>
</g>
<!-- arf_src -->
<g id="node5" class="node">
<title>arf_src</title>
<path fill="#eaf5ff" stroke="#51606f" d="M430.5,-462C430.5,-462 322.5,-462 322.5,-462 316.5,-462 310.5,-456 310.5,-450 310.5,-450 310.5,-438 310.5,-438 310.5,-432 316.5,-426 322.5,-426 322.5,-426 430.5,-426 430.5,-426 436.5,-426 442.5,-432 442.5,-438 442.5,-438 442.5,-450 442.5,-450 442.5,-456 436.5,-462 430.5,-462"/>
<text text-anchor="middle" x="376.5" y="-447.2" font-family="DejaVu Sans" font-size="11.00">ARF source</text>
<text text-anchor="middle" x="376.5" y="-435.2" font-family="DejaVu Sans" font-size="11.00">per&#45;lane wide values</text>
</g>
<!-- arf_src&#45;&gt;mac -->
<g id="edge11" class="edge">
<title>arf_src&#45;&gt;mac</title>
<path fill="none" stroke="#2f6f9f" d="M442.57,-453.71C461.89,-456.6 478,-459 478,-459 478,-459 507,-459 507,-459 507,-459 556.49,-450.55 603.78,-442.47"/>
<polygon fill="#2f6f9f" stroke="#2f6f9f" points="604.25,-444.88 610.74,-441.28 603.43,-440.05 604.25,-444.88"/>
<text text-anchor="middle" x="492.5" y="-461.8" font-family="DejaVu Sans" font-size="9.00" fill="#34495e">acc</text>
</g>
<!-- arf_src&#45;&gt;wadd -->
<g id="edge16" class="edge">
<title>arf_src&#45;&gt;wadd</title>
<path fill="none" stroke="#2f6f9f" d="M389.31,-462.33C409.61,-493.86 449,-555 449,-555 449,-555 478,-647 478,-647 478,-647 507,-707 507,-707 507,-707 536,-800 536,-800 536,-800 560.35,-806.39 589.59,-814.06"/>
<polygon fill="#2f6f9f" stroke="#2f6f9f" points="589.32,-816.52 596.71,-815.92 590.56,-811.78 589.32,-816.52"/>
<text text-anchor="middle" x="492.5" y="-709.8" font-family="DejaVu Sans" font-size="9.00" fill="#34495e">acc</text>
</g>
<!-- arf_src&#45;&gt;wsub -->
<g id="edge21" class="edge">
<title>arf_src&#45;&gt;wsub</title>
<path fill="none" stroke="#2f6f9f" d="M401.55,-462.2C439,-490.54 507,-542 507,-542 507,-542 536,-720 536,-720 536,-720 560.35,-726.39 589.59,-734.06"/>
<polygon fill="#2f6f9f" stroke="#2f6f9f" points="589.32,-736.52 596.71,-735.92 590.56,-731.78 589.32,-736.52"/>
<text text-anchor="middle" x="492.5" y="-544.8" font-family="DejaVu Sans" font-size="9.00" fill="#34495e">acc</text>
</g>
<!-- arf_src&#45;&gt;wide_scale -->
<g id="edge23" class="edge">
<title>arf_src&#45;&gt;wide_scale</title>
<path fill="none" stroke="#2f6f9f" d="M410.51,-425.9C448.88,-404.86 507,-373 507,-373 507,-373 536,-308 536,-308 536,-308 560.78,-301.5 590.36,-293.74"/>
<polygon fill="#2f6f9f" stroke="#2f6f9f" points="591,-296.11 597.15,-291.96 589.76,-291.37 591,-296.11"/>
</g>
<!-- arf_src&#45;&gt;nslice -->
<g id="edge26" class="edge">
<title>arf_src&#45;&gt;nslice</title>
<path fill="none" stroke="#2f6f9f" d="M385.42,-425.71C404.04,-382.75 449,-279 449,-279 449,-279 478,-80 478,-80 478,-80 536,-64 536,-64 536,-64 568.73,-55.42 603.86,-46.2"/>
<polygon fill="#2f6f9f" stroke="#2f6f9f" points="604.76,-48.5 610.91,-44.35 603.52,-43.76 604.76,-48.5"/>
</g>
<!-- arf_src&#45;&gt;nclip -->
<g id="edge29" class="edge">
<title>arf_src&#45;&gt;nclip</title>
<path fill="none" stroke="#2f6f9f" d="M385.42,-425.71C404.04,-382.75 449,-279 449,-279 449,-279 478,-194 478,-194 478,-194 536,-148 536,-148 536,-148 584.44,-132.12 626.72,-118.26"/>
<polygon fill="#2f6f9f" stroke="#2f6f9f" points="627.56,-120.56 633.44,-116.05 626.03,-115.9 627.56,-120.56"/>
</g>
<!-- arf_dst -->
<g id="node14" class="node">
<title>arf_dst</title>
<path fill="#f4effa" stroke="#7c5a8b" d="M1029,-526C1029,-526 917,-526 917,-526 911,-526 905,-520 905,-514 905,-514 905,-502 905,-502 905,-496 911,-490 917,-490 917,-490 1029,-490 1029,-490 1035,-490 1041,-496 1041,-502 1041,-502 1041,-514 1041,-514 1041,-520 1035,-526 1029,-526"/>
<text text-anchor="middle" x="973" y="-511.2" font-family="DejaVu Sans" font-size="11.00">ARF destination</text>
<text text-anchor="middle" x="973" y="-499.2" font-family="DejaVu Sans" font-size="11.00">masked ACC_W write</text>
</g>
<!-- widen&#45;&gt;arf_dst -->
<g id="edge5" class="edge">
<title>widen&#45;&gt;arf_dst</title>
<path fill="none" stroke="#2f6f9f" d="M760.06,-366.24C800.28,-376.79 843,-388 843,-388 843,-388 909.61,-449.96 947.1,-484.84"/>
<polygon fill="#2f6f9f" stroke="#2f6f9f" points="945.61,-486.8 952.41,-489.77 948.95,-483.21 945.61,-486.8"/>
</g>
<!-- mul&#45;&gt;arf_dst -->
<g id="edge8" class="edge">
<title>mul&#45;&gt;arf_dst</title>
<path fill="none" stroke="#2f6f9f" d="M761.84,-206.71C801.53,-217.12 843,-228 843,-228 843,-228 928.84,-414.32 960.47,-482.98"/>
<polygon fill="#2f6f9f" stroke="#2f6f9f" points="958.38,-484.3 963.54,-489.63 962.83,-482.25 958.38,-484.3"/>
</g>
<!-- mac&#45;&gt;arf_dst -->
<g id="edge12" class="edge">
<title>mac&#45;&gt;arf_dst</title>
<path fill="none" stroke="#2f6f9f" d="M768.09,-448.35C805.76,-458.23 843,-468 843,-468 843,-468 874.97,-477.91 907.07,-487.87"/>
<polygon fill="#2f6f9f" stroke="#2f6f9f" points="906.5,-490.26 913.92,-489.99 907.96,-485.58 906.5,-490.26"/>
</g>
<!-- wadd&#45;&gt;arf_dst -->
<g id="edge17" class="edge">
<title>wadd&#45;&gt;arf_dst</title>
<path fill="none" stroke="#2f6f9f" d="M782.29,-815.92C814.59,-807.45 843,-800 843,-800 843,-800 929.99,-603.1 961.1,-532.68"/>
<polygon fill="#2f6f9f" stroke="#2f6f9f" points="963.34,-533.66 963.93,-526.27 958.86,-531.68 963.34,-533.66"/>
</g>
<!-- wsub&#45;&gt;arf_dst -->
<g id="edge22" class="edge">
<title>wsub&#45;&gt;arf_dst</title>
<path fill="none" stroke="#2f6f9f" d="M782.29,-735.92C814.59,-727.45 843,-720 843,-720 843,-720 923.48,-587.73 957.31,-532.15"/>
<polygon fill="#2f6f9f" stroke="#2f6f9f" points="959.46,-533.33 961,-526.08 955.27,-530.78 959.46,-533.33"/>
</g>
<!-- wide_scale&#45;&gt;arf_dst -->
<g id="edge25" class="edge">
<title>wide_scale&#45;&gt;arf_dst</title>
<path fill="none" stroke="#2f6f9f" d="M781.85,-291.96C814.33,-300.48 843,-308 843,-308 843,-308 922.02,-430.5 956.37,-483.76"/>
<polygon fill="#2f6f9f" stroke="#2f6f9f" points="954.47,-485.34 960.32,-489.9 958.59,-482.69 954.47,-485.34"/>
</g>
<!-- vrf_dst -->
<g id="node15" class="node">
<title>vrf_dst</title>
<path fill="#f4effa" stroke="#7c5a8b" d="M1032,-79C1032,-79 914,-79 914,-79 908,-79 902,-73 902,-67 902,-67 902,-55 902,-55 902,-49 908,-43 914,-43 914,-43 1032,-43 1032,-43 1038,-43 1044,-49 1044,-55 1044,-55 1044,-67 1044,-67 1044,-73 1038,-79 1032,-79"/>
<text text-anchor="middle" x="973" y="-64.2" font-family="DejaVu Sans" font-size="11.00">VRF destination</text>
<text text-anchor="middle" x="973" y="-52.2" font-family="DejaVu Sans" font-size="11.00">masked ELEM_W write</text>
</g>
<!-- nslice&#45;&gt;vrf_dst -->
<g id="edge28" class="edge">
<title>nslice&#45;&gt;vrf_dst</title>
<path fill="none" stroke="#2f6f9f" d="M768.17,-34.21C807.54,-39.38 855.22,-45.65 894.56,-50.82"/>
<polygon fill="#2f6f9f" stroke="#2f6f9f" points="894.54,-53.29 901.8,-51.77 895.18,-48.43 894.54,-53.29"/>
</g>
<!-- nclip&#45;&gt;vrf_dst -->
<g id="edge31" class="edge">
<title>nclip&#45;&gt;vrf_dst</title>
<path fill="none" stroke="#2f6f9f" d="M786.2,-85.42C821.61,-80.77 861.28,-75.55 894.84,-71.14"/>
<polygon fill="#2f6f9f" stroke="#2f6f9f" points="895.29,-73.55 901.91,-70.21 894.65,-68.7 895.29,-73.55"/>
</g>
<!-- zero_sequence -->
<g id="node16" class="node">
<title>zero_sequence</title>
<polygon fill="#fff8df" stroke="#b18a20" points="811,-704 562,-704 562,-644 817,-644 817,-698 811,-704"/>
<polyline fill="none" stroke="#b18a20" points="811,-704 811,-698 "/>
<polyline fill="none" stroke="#b18a20" points="817,-698 811,-698 "/>
<text text-anchor="middle" x="689.5" y="-689.2" font-family="DejaVu Sans" font-size="11.00">Implemented ARF clear sequence</text>
<text text-anchor="middle" x="689.5" y="-677.2" font-family="DejaVu Sans" font-size="11.00">XOR VRFz, VRFx, VRFx</text>
<text text-anchor="middle" x="689.5" y="-665.2" font-family="DejaVu Sans" font-size="11.00">WIDEN ARFdst, VRFz, shift=0</text>
<text text-anchor="middle" x="689.5" y="-653.2" font-family="DejaVu Sans" font-size="11.00">(two ops unless a zero VRF already exists)</text>
</g>
<!-- zero_sequence&#45;&gt;arf_dst -->
<g id="edge32" class="edge">
<title>zero_sequence&#45;&gt;arf_dst</title>
<path fill="none" stroke="#b18a20" stroke-dasharray="5,2" d="M790.09,-643.96C819.03,-635.23 843,-628 843,-628 843,-628 909.61,-566.04 947.1,-531.16"/>
<polygon fill="#b18a20" stroke="#b18a20" points="948.95,-532.79 952.41,-526.23 945.61,-529.2 948.95,-532.79"/>
</g>
<!-- arf_arf_gap -->
<g id="node17" class="node">
<title>arf_arf_gap</title>
<polygon fill="#fff0f0" stroke="#b55b5b" points="776,-612 597,-612 597,-564 782,-564 782,-606 776,-612"/>
<polyline fill="none" stroke="#b55b5b" points="776,-612 776,-606 "/>
<polyline fill="none" stroke="#b55b5b" points="782,-606 776,-606 "/>
<text text-anchor="middle" x="689.5" y="-597.2" font-family="DejaVu Sans" font-size="11.00">Not implemented</text>
<text text-anchor="middle" x="689.5" y="-585.2" font-family="DejaVu Sans" font-size="11.00">ARF + ARF / wide route</text>
<text text-anchor="middle" x="689.5" y="-573.2" font-family="DejaVu Sans" font-size="11.00">current ARF has one read port</text>
</g>
<!-- arf_arf_gap&#45;&gt;arf_dst -->
<g id="edge33" class="edge">
<title>arf_arf_gap&#45;&gt;arf_dst</title>
<path fill="none" stroke="#b55b5b" stroke-dasharray="1,5" d="M782.29,-563.92C814.59,-555.45 843,-548 843,-548 843,-548 879.68,-536.63 913.92,-526.01"/>
</g>
<!-- seti_gap -->
<g id="node18" class="node">
<title>seti_gap</title>
<polygon fill="#fff0f0" stroke="#b55b5b" points="837,-532 536,-532 536,-484 843,-484 843,-526 837,-532"/>
<polyline fill="none" stroke="#b55b5b" points="837,-532 837,-526 "/>
<polyline fill="none" stroke="#b55b5b" points="843,-526 837,-526 "/>
<text text-anchor="middle" x="689.5" y="-517.2" font-family="DejaVu Sans" font-size="11.00">Deferred specialization</text>
<text text-anchor="middle" x="689.5" y="-505.2" font-family="DejaVu Sans" font-size="11.00">set/clear ARF from value+shift immediates</text>
<text text-anchor="middle" x="689.5" y="-493.2" font-family="DejaVu Sans" font-size="11.00">would require immediate&#45;A or a dedicated operation</text>
</g>
<!-- seti_gap&#45;&gt;arf_dst -->
<g id="edge34" class="edge">
<title>seti_gap&#45;&gt;arf_dst</title>
<path fill="none" stroke="#b55b5b" stroke-dasharray="1,5" d="M843.2,-508C864.78,-508 885.99,-508 904.77,-508"/>
</g>
</g>
</svg>
